<svg width="300" height="270" viewBox="0 0 300 270" fill="none" xmlns="http://www.w3.org/2000/svg">
<path d="M82.2042 134.025C81.9113 139.234 83.7486 144.343 87.314 148.234C90.8794 152.126 95.8824 154.484 101.228 154.791C101.62 154.791 102.028 154.791 102.396 154.791C106.345 154.788 110.206 153.659 113.503 151.542C116.8 149.425 119.388 146.414 120.948 142.881C122.507 139.347 122.969 135.446 122.277 131.659C121.585 127.873 119.769 124.366 117.054 121.574C114.338 118.781 110.843 116.825 106.998 115.946C103.154 115.068 99.1294 115.305 95.4221 116.63C91.7149 117.954 88.4873 120.308 86.1382 123.399C83.7891 126.491 82.4214 130.185 82.2042 134.025Z" fill="black"/>
<path d="M6.89351 128.962C5.60462 128.892 4.32324 129.195 3.21135 129.834C2.09946 130.473 1.20699 131.418 0.646765 132.551C0.0865405 133.684 -0.116285 134.953 0.0639284 136.198C0.244142 137.443 0.799303 138.608 1.65923 139.546C2.51916 140.484 3.64524 141.152 4.89512 141.467C6.145 141.781 7.46255 141.728 8.68123 141.313C9.8999 140.898 10.965 140.141 11.7418 139.137C12.5186 138.132 12.9723 136.926 13.0455 135.671C13.0952 134.837 12.9754 134.001 12.6929 133.212C12.4104 132.423 11.9708 131.696 11.3993 131.073C10.8278 130.45 10.1356 129.942 9.36237 129.58C8.58918 129.218 7.75019 129.008 6.89351 128.962Z" fill="black"/>
<path d="M80.9257 19.8183C82.0745 19.2486 83.0244 18.3603 83.6556 17.2654C84.2868 16.1705 84.571 14.9182 84.4725 13.6662C84.3739 12.4142 83.897 11.2187 83.1018 10.2303C82.3066 9.24199 81.2288 8.50511 80.0042 8.11259C78.7796 7.72007 77.4632 7.6895 76.2208 8.02472C74.9784 8.35994 73.8658 9.04595 73.0231 9.99624C72.1805 10.9465 71.6456 12.1186 71.4858 13.3646C71.3261 14.6105 71.5488 15.8747 72.1257 16.9976C72.5126 17.7462 73.0474 18.4132 73.6993 18.9602C74.3513 19.5073 75.1076 19.9237 75.925 20.1858C76.7424 20.4478 77.6048 20.5502 78.4629 20.4871C79.321 20.4241 80.1579 20.1968 80.9257 19.8183Z" fill="black"/>
<path d="M101.42 54.6241C103.202 53.7493 104.677 52.3798 105.659 50.6886C106.642 48.9974 107.087 47.0605 106.939 45.1227C106.792 43.1849 106.057 41.3333 104.829 39.8019C103.601 38.2706 101.935 37.1282 100.04 36.5193C98.1458 35.9104 96.1085 35.8623 94.1859 36.381C92.2634 36.8998 90.5419 37.9621 89.2391 39.4336C87.9363 40.9052 87.1107 42.72 86.8668 44.6485C86.6228 46.577 86.9713 48.5327 87.8683 50.2683C89.0734 52.5954 91.1777 54.3613 93.7188 55.178C96.2599 55.9947 99.03 55.7955 101.42 54.6241Z" fill="black"/>
<path d="M32.4619 78.5622C33.8372 79.4399 35.4488 79.9005 37.0929 79.8859C38.737 79.8713 40.3397 79.3821 41.6983 78.4802C43.0569 77.5783 44.1104 76.3042 44.7255 74.8191C45.3406 73.334 45.4897 71.7045 45.154 70.1369C44.8182 68.5692 44.0126 67.1338 42.8391 66.0121C41.6657 64.8904 40.177 64.1329 38.5615 63.8353C36.946 63.5378 35.2761 63.7136 33.7632 64.3405C32.2503 64.9674 30.9622 66.0172 30.0619 67.3573C28.8553 69.1533 28.4302 71.3425 28.8803 73.4437C29.3303 75.5449 30.6186 77.3859 32.4619 78.5622Z" fill="black"/>
<path d="M44.7404 125.455C42.7465 125.344 40.7636 125.812 39.0426 126.799C37.3215 127.786 35.9396 129.247 35.0717 130.999C34.2037 132.751 33.8887 134.715 34.1665 136.641C34.4443 138.567 35.3024 140.37 36.6323 141.821C37.9622 143.272 39.704 144.307 41.6376 144.794C43.5712 145.28 45.6096 145.198 47.4949 144.556C49.3802 143.914 51.0278 142.743 52.2292 141.189C53.4307 139.635 54.132 137.769 54.2444 135.827C54.3951 133.224 53.4786 130.67 51.6965 128.725C49.9144 126.78 47.4123 125.604 44.7404 125.455Z" fill="black"/>
<path d="M33.5986 191.469C32.1301 192.19 30.914 193.318 30.104 194.712C29.294 196.105 28.9266 197.702 29.0482 199.299C29.1697 200.896 29.7749 202.422 30.787 203.684C31.7992 204.946 33.1729 205.887 34.7344 206.389C36.2959 206.89 37.975 206.929 39.5594 206.501C41.1437 206.073 42.5621 205.197 43.6352 203.984C44.7083 202.77 45.3878 201.274 45.5877 199.685C45.7877 198.095 45.4992 196.483 44.7586 195.054C44.2688 194.103 43.5913 193.257 42.7648 192.562C41.9384 191.867 40.9793 191.338 39.9425 191.005C38.9057 190.672 37.8117 190.542 36.7231 190.621C35.6344 190.701 34.5727 190.989 33.5986 191.469Z" fill="black"/>
<path d="M72.7963 105.111C74.7597 106.365 77.0609 107.024 79.4088 107.004C81.7566 106.985 84.0458 106.287 85.9868 105.001C87.9279 103.714 89.4335 101.895 90.3135 99.775C91.1934 97.6548 91.4082 95.328 90.9305 93.0889C90.4528 90.8498 89.3042 88.7989 87.6299 87.1956C85.9556 85.5923 83.8308 84.5086 81.5241 84.0814C79.2175 83.6543 76.8326 83.9029 74.671 84.7959C72.5094 85.6889 70.6683 87.1861 69.3803 89.0983C68.5239 90.3678 67.933 91.7893 67.6412 93.2815C67.3494 94.7737 67.3625 96.3072 67.6797 97.7945C67.997 99.2817 68.6122 100.693 69.4902 101.949C70.3681 103.204 71.4916 104.279 72.7963 105.111Z" fill="black"/>
<path d="M197.173 53.8459C198.843 54.9131 200.8 55.4741 202.797 55.4578C204.794 55.4416 206.741 54.8489 208.392 53.7547C210.043 52.6605 211.324 51.114 212.072 49.3107C212.821 47.5075 213.004 45.5285 212.597 43.6241C212.191 41.7196 211.214 39.9753 209.79 38.6118C208.366 37.2483 206.558 36.3267 204.596 35.9638C202.634 35.6008 200.606 35.8127 198.768 36.5726C196.93 37.3326 195.364 38.6065 194.269 40.2332C193.541 41.3125 193.039 42.5209 192.791 43.7894C192.543 45.0579 192.555 46.3615 192.824 47.6258C193.094 48.89 193.617 50.0901 194.363 51.1574C195.109 52.2247 196.064 53.1383 197.173 53.8459Z" fill="black"/>
<path d="M217.879 19.1482C218.959 19.8366 220.224 20.1977 221.514 20.1861C222.805 20.1744 224.063 19.7905 225.129 19.0827C226.196 18.375 227.023 17.3752 227.507 16.2097C227.99 15.0442 228.108 13.7653 227.845 12.5345C227.583 11.3038 226.952 10.1765 226.032 9.29503C225.111 8.41357 223.944 7.81751 222.676 7.58216C221.408 7.34682 220.097 7.48276 218.909 7.97279C217.72 8.46283 216.708 9.28498 215.999 10.3354C215.527 11.034 215.202 11.8163 215.041 12.6376C214.881 13.4589 214.888 14.303 215.062 15.1216C215.237 15.9401 215.576 16.7171 216.059 17.4081C216.542 18.099 217.161 18.6903 217.879 19.1482Z" fill="black"/>
<path d="M198.759 115.255C196.11 115.109 193.458 115.471 190.953 116.323C188.449 117.174 186.141 118.498 184.162 120.218C182.182 121.939 180.57 124.022 179.417 126.349C178.265 128.676 177.594 131.201 177.443 133.781C177.292 136.361 177.664 138.944 178.539 141.383C179.413 143.823 180.772 146.071 182.538 147.999C184.304 149.927 186.443 151.497 188.832 152.62C191.221 153.743 193.814 154.396 196.463 154.543C196.855 154.543 197.263 154.543 197.623 154.543C202.882 154.543 207.933 152.545 211.704 148.974C215.474 145.404 217.666 140.542 217.814 135.421C217.962 130.301 216.054 125.327 212.496 121.555C208.938 117.784 204.009 115.512 198.759 115.224V115.255Z" fill="black"/>
<path d="M108.062 103.747C109.74 107.005 112.318 109.743 115.507 111.651C118.695 113.559 122.368 114.562 126.11 114.547C129.559 114.546 132.95 113.685 135.961 112.047C138.971 110.408 141.501 108.046 143.309 105.185C145.116 102.324 146.142 99.0605 146.288 95.7043C146.434 92.3482 145.695 89.0116 144.142 86.0123C141.731 81.3521 137.518 77.8159 132.429 76.1814C127.341 74.547 121.795 74.9482 117.01 77.2969C112.226 79.6455 108.595 83.7493 106.917 88.7052C105.239 93.6612 105.651 99.0635 108.062 103.724V103.747Z" fill="black"/>
<path d="M266.397 78.5394C267.86 77.814 269.07 76.6826 269.874 75.2882C270.678 73.8938 271.04 72.2987 270.914 70.7042C270.788 69.1096 270.18 67.5871 269.167 66.3287C268.154 65.0702 266.781 64.1323 265.221 63.6331C263.661 63.1339 261.985 63.0958 260.402 63.5237C258.82 63.9516 257.404 64.8263 256.332 66.0374C255.259 67.2485 254.579 68.7418 254.378 70.3288C254.176 71.9159 254.461 73.5257 255.197 74.9551C255.689 75.9082 256.37 76.7572 257.2 77.4536C258.029 78.1499 258.992 78.6798 260.033 79.0128C261.073 79.3458 262.171 79.4754 263.263 79.3942C264.356 79.313 265.421 79.0225 266.397 78.5394Z" fill="black"/>
<path d="M215.197 84.8031C213.101 85.8328 211.366 87.4447 210.21 89.435C209.054 91.4253 208.53 93.7046 208.705 95.9848C208.879 98.265 209.743 100.444 211.188 102.246C212.633 104.048 214.594 105.392 216.824 106.108C219.053 106.825 221.45 106.882 223.713 106.271C225.975 105.661 228.001 104.411 229.534 102.68C231.067 100.948 232.039 98.8128 232.327 96.5435C232.614 94.2742 232.204 91.9728 231.149 89.9302C229.73 87.1918 227.253 85.1138 224.262 84.1526C221.271 83.1913 218.011 83.4252 215.197 84.8031Z" fill="black"/>
<path d="M149.238 16.1792C150.878 16.2687 152.508 15.883 153.923 15.0707C155.338 14.2585 156.475 13.0562 157.189 11.6156C157.903 10.1749 158.162 8.56052 157.935 6.97617C157.708 5.39182 157.004 3.90853 155.912 2.71354C154.82 1.51855 153.389 0.665425 151.8 0.261856C150.211 -0.141712 148.534 -0.0776341 146.982 0.446002C145.43 0.969639 144.073 1.92936 143.08 3.20402C142.088 4.47868 141.505 6.01114 141.406 7.60796C141.339 8.67239 141.489 9.73923 141.847 10.7471C142.205 11.7549 142.764 12.6839 143.492 13.4805C144.219 14.2771 145.102 14.9257 146.088 15.3888C147.074 15.852 148.145 16.1206 149.238 16.1792Z" fill="black"/>
<path d="M149.141 67.1162C151.485 67.2419 153.814 66.6881 155.835 65.5249C157.855 64.3617 159.476 62.6412 160.494 60.5808C161.511 58.5204 161.878 56.2126 161.549 53.9491C161.22 51.6855 160.209 49.5677 158.645 47.8634C157.08 46.159 155.032 44.9445 152.76 44.3734C150.487 43.8024 148.091 43.9002 145.876 44.6548C143.66 45.4093 141.724 46.7866 140.311 48.6126C138.899 50.4386 138.074 52.6313 137.941 54.9138C137.852 56.4316 138.072 57.9515 138.587 59.3866C139.102 60.8217 139.903 62.1437 140.943 63.2771C141.983 64.4105 143.243 65.333 144.65 65.9917C146.056 66.6505 147.583 67.0326 149.141 67.1162Z" fill="black"/>
<path d="M84.7983 185.204C86.8953 184.176 88.6321 182.564 89.789 180.574C90.9459 178.584 91.4709 176.305 91.2977 174.024C91.1244 171.743 90.2608 169.564 88.8158 167.761C87.3709 165.958 85.4096 164.613 83.18 163.896C80.9504 163.179 78.5525 163.123 76.2897 163.733C74.0268 164.343 72.0006 165.593 70.4672 167.325C68.9338 169.057 67.9621 171.193 67.675 173.463C67.3879 175.733 67.7983 178.035 68.8542 180.077C70.272 182.815 72.7475 184.893 75.737 185.854C78.7265 186.816 81.9856 186.582 84.7983 185.204Z" fill="black"/>
<path d="M156.798 83.9933C154.34 87.6514 153.205 92.0032 153.571 96.3603C153.938 100.717 155.786 104.831 158.823 108.05C161.86 111.269 165.912 113.41 170.339 114.134C174.765 114.858 179.313 114.124 183.263 112.048C187.213 109.971 190.339 106.671 192.147 102.67C193.955 98.6682 194.341 94.1939 193.245 89.9545C192.149 85.7152 189.633 81.9529 186.094 79.2629C182.556 76.573 178.198 75.109 173.71 75.1025C170.355 75.1019 167.052 75.9142 164.1 77.4663C161.148 79.0183 158.638 81.2613 156.798 83.9933Z" fill="black"/>
<path d="M191.933 166.262C190.135 162.784 187.319 159.904 183.84 157.986C180.362 156.067 176.377 155.197 172.39 155.485C168.404 155.772 164.594 157.205 161.444 159.602C158.293 161.999 155.944 165.253 154.692 168.95C153.44 172.648 153.343 176.625 154.412 180.377C155.481 184.129 157.668 187.487 160.697 190.028C163.727 192.569 167.461 194.178 171.429 194.65C175.397 195.123 179.42 194.439 182.989 192.685C185.368 191.533 187.488 189.933 189.228 187.977C190.967 186.021 192.291 183.749 193.123 181.292C193.955 178.834 194.278 176.241 194.074 173.661C193.87 171.081 193.142 168.566 191.933 166.262Z" fill="black"/>
<path d="M227.199 164.899C225.235 163.645 222.934 162.986 220.586 163.005C218.239 163.025 215.949 163.722 214.008 165.009C212.067 166.296 210.562 168.114 209.682 170.235C208.802 172.355 208.587 174.682 209.065 176.921C209.542 179.16 210.691 181.211 212.365 182.814C214.04 184.417 216.164 185.501 218.471 185.928C220.778 186.355 223.163 186.107 225.324 185.214C227.486 184.321 229.327 182.823 230.615 180.911C231.47 179.642 232.06 178.22 232.352 176.728C232.643 175.236 232.629 173.703 232.312 172.216C231.995 170.729 231.38 169.317 230.503 168.062C229.625 166.806 228.503 165.732 227.199 164.899Z" fill="black"/>
<path d="M265.902 135.335C266.016 133.393 265.536 131.462 264.523 129.785C263.51 128.109 262.009 126.763 260.21 125.918C258.412 125.072 256.396 124.765 254.418 125.036C252.441 125.307 250.59 126.142 249.1 127.438C247.61 128.733 246.548 130.43 246.048 132.313C245.548 134.196 245.633 136.182 246.292 138.018C246.951 139.854 248.154 141.459 249.749 142.629C251.344 143.799 253.26 144.482 255.254 144.592C257.926 144.739 260.549 143.846 262.545 142.11C264.542 140.375 265.749 137.938 265.902 135.335Z" fill="black"/>
<path d="M293.837 128.346C292.548 128.276 291.267 128.579 290.155 129.218C289.043 129.857 288.15 130.802 287.59 131.935C287.03 133.068 286.827 134.337 287.007 135.582C287.188 136.827 287.743 137.992 288.603 138.93C289.463 139.868 290.589 140.536 291.838 140.85C293.088 141.165 294.406 141.111 295.625 140.697C296.843 140.282 297.908 139.525 298.685 138.52C299.462 137.516 299.916 136.31 299.989 135.055C300.085 133.371 299.491 131.719 298.338 130.461C297.184 129.203 295.566 128.442 293.837 128.346Z" fill="black"/>
<path d="M267.533 191.438C266.158 190.561 264.547 190.101 262.903 190.117C261.26 190.132 259.657 190.621 258.299 191.523C256.941 192.425 255.888 193.699 255.273 195.184C254.659 196.668 254.509 198.297 254.845 199.864C255.18 201.432 255.985 202.867 257.158 203.989C258.331 205.11 259.819 205.868 261.434 206.166C263.049 206.465 264.718 206.29 266.231 205.664C267.744 205.038 269.032 203.99 269.933 202.651C270.532 201.761 270.945 200.765 271.148 199.72C271.352 198.675 271.342 197.601 271.119 196.56C270.896 195.519 270.465 194.53 269.849 193.651C269.234 192.773 268.447 192.02 267.533 191.438Z" fill="black"/>
<path d="M82.1161 250.86C81.037 250.17 79.7719 249.807 78.4808 249.817C77.1897 249.826 75.9306 250.209 74.8627 250.916C73.7949 251.623 72.9662 252.622 72.4814 253.788C71.9967 254.953 71.8777 256.233 72.1395 257.464C72.4013 258.695 73.0322 259.824 73.9523 260.706C74.8724 261.588 76.0404 262.185 77.3087 262.42C78.577 262.656 79.8885 262.52 81.0774 262.03C82.2663 261.539 83.2793 260.717 83.9881 259.666C84.9365 258.255 85.272 256.537 84.9211 254.886C84.5701 253.235 83.5614 251.788 82.1161 250.86Z" fill="black"/>
<path d="M219.062 250.19C217.913 250.76 216.963 251.648 216.332 252.743C215.701 253.838 215.417 255.09 215.515 256.342C215.614 257.594 216.091 258.79 216.886 259.778C217.681 260.767 218.759 261.504 219.983 261.896C221.208 262.289 222.524 262.319 223.767 261.984C225.009 261.649 226.122 260.963 226.965 260.012C227.807 259.062 228.342 257.89 228.502 256.644C228.662 255.398 228.439 254.134 227.862 253.011C227.477 252.261 226.943 251.593 226.291 251.044C225.639 250.496 224.883 250.079 224.065 249.817C223.247 249.554 222.384 249.453 221.525 249.517C220.666 249.581 219.829 249.81 219.062 250.19Z" fill="black"/>
<path d="M143.197 186.007C145.661 182.345 146.8 177.988 146.435 173.624C146.07 169.261 144.221 165.14 141.18 161.916C138.14 158.691 134.083 156.546 129.65 155.82C125.217 155.094 120.663 155.829 116.707 157.909C112.752 159.988 109.621 163.293 107.811 167.301C106.002 171.308 105.616 175.789 106.715 180.034C107.814 184.279 110.336 188.046 113.88 190.738C117.425 193.43 121.79 194.894 126.285 194.898C129.642 194.911 132.949 194.104 135.904 192.551C138.858 190.998 141.366 188.748 143.197 186.007Z" fill="black"/>
<path d="M102.821 216.162C101.151 215.095 99.1943 214.534 97.1974 214.55C95.2004 214.566 93.2533 215.159 91.6022 216.253C89.9511 217.347 88.6703 218.894 87.9217 220.697C87.1731 222.501 86.9904 224.479 87.3967 226.384C87.803 228.288 88.78 230.033 90.2041 231.396C91.6283 232.76 93.4356 233.681 95.3976 234.044C97.3595 234.407 99.3879 234.195 101.226 233.435C103.064 232.675 104.63 231.401 105.725 229.775C107.193 227.594 107.711 224.936 107.166 222.383C106.622 219.83 105.059 217.593 102.821 216.162Z" fill="black"/>
<path d="M149.902 253.821C148.262 253.73 146.631 254.114 145.215 254.925C143.799 255.737 142.662 256.938 141.946 258.379C141.231 259.819 140.97 261.434 141.196 263.018C141.423 264.603 142.126 266.087 143.217 267.283C144.309 268.479 145.74 269.333 147.329 269.737C148.919 270.141 150.595 270.078 152.148 269.554C153.7 269.031 155.059 268.071 156.051 266.797C157.044 265.522 157.627 263.989 157.726 262.392C157.792 261.328 157.642 260.263 157.284 259.256C156.926 258.249 156.368 257.321 155.641 256.524C154.914 255.728 154.033 255.079 153.048 254.615C152.063 254.151 150.994 253.881 149.902 253.821Z" fill="black"/>
<path d="M149.989 202.885C147.646 202.759 145.317 203.313 143.297 204.476C141.276 205.639 139.655 207.359 138.638 209.419C137.621 211.479 137.253 213.786 137.582 216.049C137.91 218.312 138.92 220.43 140.484 222.135C142.047 223.839 144.094 225.054 146.366 225.626C148.639 226.198 151.034 226.101 153.25 225.348C155.465 224.595 157.402 223.219 158.815 221.394C160.228 219.569 161.055 217.377 161.189 215.095C161.278 213.577 161.058 212.056 160.543 210.621C160.028 209.185 159.228 207.863 158.188 206.729C157.148 205.595 155.888 204.671 154.481 204.012C153.075 203.352 151.548 202.969 149.989 202.885Z" fill="black"/>
<path d="M198.565 215.376C196.787 216.256 195.317 217.63 194.34 219.323C193.362 221.017 192.922 222.954 193.074 224.891C193.227 226.828 193.964 228.678 195.195 230.207C196.425 231.736 198.093 232.876 199.987 233.483C201.882 234.09 203.919 234.136 205.841 233.617C207.762 233.097 209.483 232.035 210.786 230.564C212.089 229.093 212.915 227.279 213.16 225.351C213.406 223.423 213.059 221.468 212.165 219.731C211.568 218.573 210.743 217.541 209.735 216.695C208.728 215.849 207.558 215.204 206.295 214.8C205.031 214.395 203.697 214.237 202.371 214.336C201.044 214.435 199.751 214.788 198.565 215.376Z" fill="black"/>
</svg>
