<svg width="300" height="300" viewBox="0 0 300 300" fill="none" xmlns="http://www.w3.org/2000/svg">
<path fill-rule="evenodd" clip-rule="evenodd" d="M300 150C300 232.955 232.944 300 149.992 300C67.0407 300 0 232.955 0 150C0 67.0447 67.0483 0 149.992 0C232.937 0 300 67.0447 300 150ZM290.996 150C290.996 72.1558 227.853 8.99195 150 8.99195C72.1468 8.99195 8.9965 72.1558 8.9965 150C8.9965 227.844 72.1468 290.993 149.992 290.993C227.838 290.993 290.988 227.844 290.988 150H290.996ZM208.158 120.169C207.018 120.169 206.061 120.207 205.514 120.26C204.891 121.399 203.956 122.933 202.573 125.067C224.046 125.067 243.551 126.829 265.123 130.702L259.037 136.58C239.57 133.132 223.401 131.75 202.801 131.75C199.792 131.75 199.169 131.75 198.44 131.773C197.726 132.859 196.107 134.955 194.481 136.907C196.312 136.793 199.853 136.732 204.746 136.732C221.691 136.732 237.526 137.985 254.714 140.757L248.627 146.658C235.558 144.615 219.563 143.453 205.225 143.453C200.127 143.453 194.337 143.628 189.147 143.924C187.984 145.276 184.922 148.58 183.995 149.597C190.857 148.884 198.425 148.549 207.421 148.549C220.232 148.549 232.473 149.392 244.053 151.101L237.967 156.957C229.707 155.931 219.7 155.331 210.848 155.331C188.015 155.331 170.022 160.275 151.413 171.652C169.14 190.661 198.181 202.699 226.326 202.699H228.955L219.115 212.207C178.54 204.59 135.821 186.742 99.729 162.296C65.0195 138.874 52.8773 131.94 25.789 119.964L25.6142 113.015L43.9415 120.867L50.1798 115.923L110.017 143.332L106.119 146.453L75.4065 133.102L72.3747 135.479L88.339 144.38C101.811 151.883 112.061 155.24 121.544 155.24C142.272 155.24 160.873 140.545 172.871 114.723C181.906 113.546 191.533 113.015 203.113 113.015C226.858 113.015 249.927 115.285 276.065 120.176L269.698 126.328C253.445 122.941 225.809 120.176 208.181 120.176L208.158 120.169Z" fill="black"/>
</svg>
