<svg width="395" height="72" viewBox="0 0 395 72" fill="none" xmlns="http://www.w3.org/2000/svg">
<path d="M0 29.58V0H65.06V29.58H53.23V38.45L35.49 29.58V38.45L17.75 29.58V38.45L0.0100021 29.58H0Z" fill="white"/>
<path d="M0 59.1592V70.9892H65.06V59.1592H0Z" fill="white"/>
<path d="M104.628 71.18V19.58L141.538 71.18H154.768V0H142.568V51.57L105.348 0H92.3281V71.18H104.628Z" fill="white"/>
<path d="M239 16.9798H239.31V71.0798H251.7V0.00976562H233.42L212.66 57.0698L191.59 0.00976562H173.1V71.0798H185.49V16.9798L205.63 71.1898H219.16L238.99 16.9798H239Z" fill="white"/>
<path d="M270.039 0.00976562V71.1898H282.529V49.6198L293.159 38.1598L314.119 71.1898H328.989L301.839 28.2598L326.199 0.0197754H310.409L292.139 22.0698L282.539 34.1398V0.00976562H270.049H270.039Z" fill="white"/>
<path d="M393.779 21.46C393.779 5.36999 383.489 0 369.109 0L339.039 0.0399933V71.18H351.379V43.12H367.279L380.939 71.18H394.499V70.46L379.719 41.58C387.769 39.21 393.789 32.81 393.789 21.47L393.779 21.46ZM351.369 10.53H369.109C376.759 10.53 381.239 14.35 381.239 21.57C381.239 28.79 376.549 32.61 369.109 32.61H351.369V10.54V10.53Z" fill="white"/>
</svg>
