<svg width="48" height="48" viewBox="0 0 48 48" fill="none" xmlns="http://www.w3.org/2000/svg">
<path fill-rule="evenodd" clip-rule="evenodd" d="M48 24C48 37.2548 37.2548 48 24 48C10.7452 48 0 37.2548 0 24C0 10.7452 10.7452 0 24 0C37.2548 0 48 10.7452 48 24ZM27.4616 11.625C20.5717 11.625 14.9857 17.1767 14.9857 24.027H18.4516C18.4516 19.0876 22.4929 15.0704 27.4616 15.0704C32.4303 15.0704 36.4716 19.0891 36.4716 24.027H39.9374C39.9374 17.1782 34.3514 11.625 27.4616 11.625ZM33.0142 24.0258C33.0142 30.8761 27.4282 36.4278 20.5384 36.4278C13.6485 36.4278 8.0625 30.8746 8.0625 24.0258H11.5283C11.5283 28.9637 15.5696 32.9824 20.5384 32.9824C25.5071 32.9824 29.5484 28.9652 29.5484 24.0258H33.0142Z" fill="#FF51FF"/>
</svg>
