<svg width="950" height="950" viewBox="0 0 950 950" fill="none" xmlns="http://www.w3.org/2000/svg">
<circle cx="475" cy="475" r="475" fill="#6400FF"/>
<path d="M545.732 225C406.741 225 294.031 337.236 294.031 475.722H363.948C363.948 375.879 445.473 294.666 545.732 294.666C645.991 294.666 727.516 375.918 727.516 475.722H797.433C797.433 337.274 684.723 225 545.732 225Z" fill="white"/>
<path d="M404.701 724.484C543.692 724.484 656.402 613.125 656.402 475.721H586.485C586.485 574.783 504.96 655.362 404.701 655.362C304.442 655.362 222.917 574.745 222.917 475.721H153C153 613.086 265.71 724.484 404.701 724.484Z" fill="white"/>
</svg>
