<svg width="32" height="32" viewBox="0 0 32 32" fill="none" xmlns="http://www.w3.org/2000/svg">
<rect width="32" height="32" rx="8" fill="#FF0000"/>
<path d="M18.7148 6.30859C13.3109 6.30859 8.92969 10.6468 8.92969 15.9998H11.648C11.648 12.14 14.8177 9.0009 18.7148 9.0009C22.6118 9.0009 25.7815 12.1412 25.7815 15.9998H28.4998C28.4998 10.648 24.1186 6.30859 18.7148 6.30859Z" fill="white"/>
<path d="M13.2851 25.6912C18.6889 25.6912 23.0701 21.3529 23.0701 16H20.3518C20.3518 19.8597 17.1821 22.9989 13.2851 22.9989C9.38801 22.9989 6.21833 19.8586 6.21833 16H3.5C3.5 21.3518 7.88122 25.6912 13.2851 25.6912Z" fill="white"/>
</svg>
