<svg width="485" height="65" viewBox="0 0 485 65" fill="none" xmlns="http://www.w3.org/2000/svg">
<path d="M485 14.5332H477.768V63.6539H485V14.5332Z" fill="white"/>
<path d="M73.8043 20.45C84.1855 20.45 92.6291 28.8321 92.6291 39.1315C92.6291 49.4308 84.1855 57.8129 73.8043 57.8129C63.4231 57.8129 54.9795 49.4308 54.9795 39.1315C54.9795 28.8321 63.4231 20.45 73.8043 20.45ZM73.8043 13.2637C59.4092 13.2637 47.7383 24.8433 47.7383 39.1315C47.7383 53.4196 59.4092 64.9992 73.8043 64.9992C88.1994 64.9992 99.8704 53.4196 99.8704 39.1315C99.8704 24.8433 88.1994 13.2637 73.8043 13.2637Z" fill="white"/>
<path d="M273.594 13.2637C259.199 13.2637 247.528 24.8433 247.528 39.1315H254.77C254.77 28.829 263.213 20.45 273.594 20.45C283.976 20.45 292.419 28.8321 292.419 39.1315H299.66C299.66 24.8464 287.989 13.2637 273.594 13.2637Z" fill="white"/>
<path d="M259.13 65.0005C273.525 65.0005 285.196 53.4209 285.196 39.1328H277.954C277.954 49.4352 269.511 57.8142 259.13 57.8142C248.748 57.8142 240.305 49.4322 240.305 39.1328H233.063C233.063 53.4179 244.734 65.0005 259.13 65.0005Z" fill="white"/>
<path d="M196.149 20.45C206.53 20.45 214.974 28.8321 214.974 39.1315C214.974 49.4308 206.53 57.8129 196.149 57.8129C185.768 57.8129 177.324 49.4308 177.324 39.1315C177.324 28.8321 185.768 20.45 196.149 20.45ZM196.149 13.2637C181.754 13.2637 170.083 24.8433 170.083 39.1315C170.083 53.4196 181.754 64.9992 196.149 64.9992C210.544 64.9992 222.215 53.4196 222.215 39.1315C222.215 24.8433 210.544 13.2637 196.149 13.2637Z" fill="white"/>
<path d="M355.42 14.5352V38.8812C355.42 49.2832 346.977 57.7438 336.595 57.7438C326.214 57.7438 317.771 49.2802 317.771 38.8812V14.5352H310.529V38.8812C310.529 53.3052 322.2 64.9995 336.595 64.9995C350.99 64.9995 362.661 53.3052 362.661 38.8812V14.5352H355.42Z" fill="white"/>
<path d="M86.8375 0H60.7715V7.24671H86.8375V0Z" fill="white"/>
<path d="M377.149 63.6538V39.3078C377.149 28.9058 385.593 20.4453 395.974 20.4453C406.355 20.4453 414.799 28.9087 414.799 39.3078V63.6538H422.04V39.3078C422.04 24.8839 410.369 13.1895 395.974 13.1895C381.579 13.1895 369.908 24.8839 369.908 39.3078V63.6538H377.149Z" fill="white"/>
<path d="M440.823 13.1886C434.045 13.1886 427.874 15.7823 423.239 20.0276C424.71 22.102 425.924 24.3243 426.87 26.6554C430.318 22.8418 435.296 20.4413 440.823 20.4413C451.204 20.4413 459.647 28.9049 459.647 39.3039V63.6498H466.889V39.3039C466.889 24.8799 455.218 13.1855 440.823 13.1855V13.1886Z" fill="white"/>
<path d="M485 0.0175781H477.768V7.26429H485V0.0175781Z" fill="white"/>
<path d="M159.226 38.8031V0H151.993V38.1811C151.993 38.3079 151.987 38.4317 151.978 38.5555C151.984 38.7488 151.993 38.939 151.993 39.1353C151.993 49.4377 143.55 57.8167 133.169 57.8167C122.787 57.8167 114.344 49.4347 114.344 39.1353C114.344 28.8359 122.787 20.4538 133.169 20.4538C137.538 20.4538 141.564 21.9424 144.761 24.4335V15.9669C141.269 14.2398 137.333 13.2705 133.169 13.2705C118.773 13.2705 107.103 24.8502 107.103 39.1383C107.103 53.4264 118.773 65.006 133.169 65.006C140.573 65.006 147.25 61.9383 151.993 57.0196V63.6594H159.226V39.4674C159.226 39.3587 159.235 39.25 159.235 39.1383C159.235 39.0266 159.229 38.9179 159.226 38.8092V38.8031Z" fill="white"/>
<path d="M7.37985 0H0V63.6533H7.37985V0Z" fill="white"/>
<path d="M23.4385 30.6904C25.7739 31.6324 28.0008 32.8342 30.077 34.2956C34.332 29.6728 36.9356 23.501 36.9356 16.7314C36.9356 15.9916 36.8994 15.2579 36.8391 14.5332H29.5708C29.6551 15.2549 29.7034 15.9856 29.7034 16.7314C29.7034 22.2781 27.2776 27.2633 23.4385 30.6904Z" fill="white"/>
<path d="M33.6176 48.6914C33.4911 48.471 33.3675 48.2506 33.2349 48.0362C33.2138 48.003 33.1958 47.9697 33.1747 47.9365C29.218 41.496 22.5011 36.9095 14.6572 35.7832V43.0299C23.2214 44.7208 29.7032 52.3027 29.7032 61.3731C29.7032 62.1431 29.652 62.904 29.5616 63.6498H36.8329C36.8992 62.898 36.9354 62.1401 36.9354 61.3731C36.9354 56.7685 35.727 52.4416 33.6176 48.6884V48.6914Z" fill="white"/>
</svg>
