<svg width="418" height="56" viewBox="0 0 418 56" fill="none" xmlns="http://www.w3.org/2000/svg">
<mask id="mask0_185_33562" style="mask-type:luminance" maskUnits="userSpaceOnUse" x="0" y="0" width="418" height="56">
<path d="M418 0H0V56H418V0Z" fill="white"/>
</mask>
<g mask="url(#mask0_185_33562)">
<path d="M418 12.5205H411.767V54.8398H418V12.5205Z" fill="black"/>
<path d="M63.6087 17.619C72.5558 17.619 79.833 24.8404 79.833 33.7137C79.833 42.5871 72.5558 49.8085 63.6087 49.8085C54.6616 49.8085 47.3845 42.5871 47.3845 33.7137C47.3845 24.8404 54.6616 17.619 63.6087 17.619ZM63.6087 11.4277C51.2022 11.4277 41.1436 21.404 41.1436 33.7137C41.1436 46.0235 51.2022 55.9998 63.6087 55.9998C76.0152 55.9998 86.0739 46.0235 86.0739 33.7137C86.0739 21.404 76.0152 11.4277 63.6087 11.4277Z" fill="black"/>
<path d="M235.798 11.4277C223.392 11.4277 213.333 21.404 213.333 33.7137H219.574C219.574 24.8378 226.851 17.619 235.798 17.619C244.745 17.619 252.022 24.8404 252.022 33.7137H258.263C258.263 21.4066 248.205 11.4277 235.798 11.4277Z" fill="black"/>
<path d="M223.332 56C235.739 56 245.798 46.0237 245.798 33.7139H239.557C239.557 42.5898 232.279 49.8087 223.332 49.8087C214.385 49.8087 207.108 42.5872 207.108 33.7139H200.867C200.867 46.0211 210.926 56 223.332 56Z" fill="black"/>
<path d="M169.052 17.619C177.999 17.619 185.276 24.8404 185.276 33.7137C185.276 42.5871 177.999 49.8085 169.052 49.8085C160.105 49.8085 152.828 42.5871 152.828 33.7137C152.828 24.8404 160.105 17.619 169.052 17.619ZM169.052 11.4277C156.646 11.4277 146.587 21.404 146.587 33.7137C146.587 46.0235 156.646 55.9998 169.052 55.9998C181.459 55.9998 191.517 46.0235 191.517 33.7137C191.517 21.404 181.459 11.4277 169.052 11.4277Z" fill="black"/>
<path d="M306.321 12.5225V33.4975C306.321 42.4593 299.044 49.7484 290.097 49.7484C281.15 49.7484 273.873 42.4567 273.873 33.4975V12.5225H267.632V33.4975C267.632 45.9243 277.691 55.9995 290.097 55.9995C302.503 55.9995 312.562 45.9243 312.562 33.4975V12.5225H306.321Z" fill="black"/>
<path d="M74.8411 0H52.376V6.24332H74.8411V0Z" fill="black"/>
<path d="M325.048 54.8403V33.8653C325.048 24.9035 332.326 17.6145 341.273 17.6145C350.22 17.6145 357.497 24.9061 357.497 33.8653V54.8403H363.738V33.8653C363.738 21.4385 353.679 11.3633 341.273 11.3633C328.866 11.3633 318.808 21.4385 318.808 33.8653V54.8403H325.048Z" fill="black"/>
<path d="M379.926 11.363C374.085 11.363 368.766 13.5975 364.771 17.2551C366.039 19.0422 367.086 20.9569 367.901 22.9651C370.872 19.6796 375.163 17.6115 379.926 17.6115C388.873 17.6115 396.15 24.9032 396.15 33.8623V54.8372H402.391V33.8623C402.391 21.4355 392.332 11.3604 379.926 11.3604V11.363Z" fill="black"/>
<path d="M418 0.015625H411.767V6.25895H418V0.015625Z" fill="black"/>
<path d="M137.23 33.4304V0H130.997V32.8945C130.997 33.0038 130.992 33.1104 130.984 33.2171C130.989 33.3836 130.997 33.5475 130.997 33.7165C130.997 42.5925 123.72 49.8113 114.773 49.8113C105.826 49.8113 98.5485 42.5899 98.5485 33.7165C98.5485 24.8432 105.826 17.6218 114.773 17.6218C118.539 17.6218 122.008 18.9043 124.764 21.0504V13.7561C121.754 12.2681 118.362 11.4331 114.773 11.4331C102.366 11.4331 92.3076 21.4094 92.3076 33.7191C92.3076 46.0289 102.366 56.0052 114.773 56.0052C121.154 56.0052 126.909 53.3622 130.997 49.1245V54.845H137.23V34.0027C137.23 33.909 137.238 33.8154 137.238 33.7191C137.238 33.6229 137.233 33.5292 137.23 33.4356V33.4304Z" fill="black"/>
<path d="M6.36037 0H0V54.8398H6.36037V0Z" fill="black"/>
<path d="M20.2012 26.4405C22.2139 27.2521 24.1332 28.2875 25.9226 29.5466C29.5898 25.5638 31.8337 20.2466 31.8337 14.4143C31.8337 13.777 31.8025 13.1448 31.7506 12.5205H25.4863C25.559 13.1422 25.6006 13.7718 25.6006 14.4143C25.6006 19.1931 23.5099 23.4879 20.2012 26.4405Z" fill="black"/>
<path d="M28.9739 41.95C28.8649 41.7601 28.7584 41.5702 28.6441 41.3855C28.6259 41.3569 28.6103 41.3283 28.5922 41.2997C25.1821 35.7509 19.3931 31.7994 12.6328 30.8291V37.0724C20.0139 38.5292 25.6003 45.0613 25.6003 52.8758C25.6003 53.5392 25.5561 54.1947 25.4782 54.8373H31.7451C31.8022 54.1895 31.8334 53.5366 31.8334 52.8758C31.8334 48.9087 30.7919 45.1809 28.9739 41.9474V41.95Z" fill="black"/>
</g>
</svg>
