<svg width="200" height="26" viewBox="0 0 200 26" fill="none" xmlns="http://www.w3.org/2000/svg">
<g clip-path="url(#clip0_185_33588)">
<mask id="mask0_185_33588" style="mask-type:luminance" maskUnits="userSpaceOnUse" x="0" y="0" width="200" height="26">
<path d="M200 0H0V26H200V0Z" fill="white"/>
</mask>
<g mask="url(#mask0_185_33588)">
<path d="M57.7288 0H54.7744V25.4612H57.7288V0Z" fill="white"/>
<path d="M64.1582 12.2763C65.093 12.6531 65.9846 13.1339 66.8158 13.7183C68.5194 11.8691 69.5618 9.40068 69.5618 6.69268C69.5618 6.39668 69.5474 6.10308 69.523 5.81348H66.613C66.647 6.10188 66.6662 6.39428 66.6662 6.69268C66.6662 8.91148 65.695 10.9055 64.1582 12.2763Z" fill="white"/>
<path d="M68.2328 19.4767C68.1824 19.3883 68.1328 19.3003 68.0796 19.2147C68.0712 19.2011 68.064 19.1879 68.0556 19.1747C66.4716 16.5987 63.7824 14.7639 60.6416 14.3135V17.2119C64.0704 17.8883 66.6656 20.9211 66.6656 24.5495C66.6656 24.8575 66.6452 25.1619 66.6088 25.4599H69.52C69.5468 25.1591 69.5612 24.8563 69.5612 24.5495C69.5612 22.7075 69.0776 20.9767 68.2328 19.4755V19.4767Z" fill="white"/>
<path d="M200 5.81348H197.104V25.4615H200V5.81348Z" fill="white"/>
<path d="M41.442 8.18046C45.598 8.18046 48.9788 11.5333 48.9788 15.6529C48.9788 19.7729 45.598 23.1257 41.442 23.1257C37.2855 23.1257 33.905 19.7729 33.905 15.6529C33.905 11.5333 37.2855 8.18046 41.442 8.18046ZM41.442 5.30566C35.6785 5.30566 31.0059 9.93766 31.0059 15.6529C31.0059 21.3681 35.6785 26.0001 41.442 26.0001C47.2052 26.0001 51.8776 21.3681 51.8776 15.6529C51.8776 9.93766 47.2052 5.30566 41.442 5.30566Z" fill="white"/>
<path d="M115.36 5.30566C109.597 5.30566 104.925 9.93766 104.925 15.6529H107.824C107.824 11.5321 111.204 8.18046 115.36 8.18046C119.517 8.18046 122.897 11.5333 122.897 15.6529H125.796C125.796 9.93886 121.124 5.30566 115.36 5.30566Z" fill="white"/>
<path d="M109.569 26.0005C115.332 26.0005 120.005 21.3685 120.005 15.6533H117.106C117.106 19.7741 113.725 23.1261 109.569 23.1261C105.412 23.1261 102.032 19.7729 102.032 15.6533H99.1328C99.1328 21.3673 103.806 26.0005 109.569 26.0005Z" fill="white"/>
<path d="M16.227 5.30566C10.4637 5.30566 5.79102 9.93766 5.79102 15.6529H8.69018C8.69018 11.5321 12.0707 8.18046 16.227 8.18046C20.3833 8.18046 23.7638 11.5333 23.7638 15.6529H26.6629C26.6629 9.93886 21.9903 5.30566 16.227 5.30566Z" fill="white"/>
<path d="M10.436 26.0005C16.1993 26.0005 20.8719 21.3685 20.8719 15.6533H17.9728C17.9728 19.7741 14.5922 23.1261 10.436 23.1261C6.27968 23.1261 2.89914 19.7729 2.89914 15.6533H0C0 21.3673 4.67264 26.0005 10.436 26.0005Z" fill="white"/>
<path d="M84.354 8.18046C88.5104 8.18046 91.8908 11.5333 91.8908 15.6529C91.8908 19.7729 88.5104 23.1257 84.354 23.1257C80.1976 23.1257 76.8172 19.7729 76.8172 15.6529C76.8172 11.5333 80.1976 8.18046 84.354 8.18046ZM84.354 5.30566C78.5908 5.30566 73.918 9.93766 73.918 15.6529C73.918 21.3681 78.5908 26.0001 84.354 26.0001C90.1172 26.0001 94.79 21.3681 94.79 15.6529C94.79 9.93766 90.1172 5.30566 84.354 5.30566Z" fill="white"/>
<path d="M148.119 5.81445V15.5528C148.119 19.7136 144.739 23.0976 140.582 23.0976C136.426 23.0976 133.046 19.7124 133.046 15.5528V5.81445H130.146V15.5528C130.146 21.3224 134.819 26 140.582 26C146.346 26 151.018 21.3224 151.018 15.5528V5.81445H148.119Z" fill="white"/>
<path d="M46.6604 0H36.2246V2.8988H46.6604V0Z" fill="white"/>
<path d="M156.821 25.4614V15.723C156.821 11.5622 160.201 8.17779 164.358 8.17779C168.514 8.17779 171.895 11.5634 171.895 15.723V25.4614H174.794V15.723C174.794 9.95339 170.121 5.27539 164.358 5.27539C158.594 5.27539 153.922 9.95339 153.922 15.723V25.4614H156.821Z" fill="white"/>
<path d="M182.312 5.27561C179.599 5.27561 177.128 6.31325 175.272 8.01125C175.861 8.84125 176.347 9.73001 176.726 10.6624C178.106 9.13681 180.099 8.17681 182.312 8.17681C186.468 8.17681 189.849 11.562 189.849 15.7216V25.46H192.748V15.7216C192.748 9.95201 188.075 5.27441 182.312 5.27441V5.27561Z" fill="white"/>
<path d="M200 0.00683594H197.104V2.90563H200V0.00683594Z" fill="white"/>
</g>
</g>
<defs>
<clipPath id="clip0_185_33588">
<rect width="200" height="26" fill="white"/>
</clipPath>
</defs>
</svg>
