<svg width="603" height="499" viewBox="0 0 603 499" fill="none" xmlns="http://www.w3.org/2000/svg">
<path d="M0 16C0 7.16345 7.16344 0 16 0H587C595.837 0 603 7.16344 603 16V483C603 491.837 595.837 499 587 499H16C7.16346 499 0 491.837 0 483V16Z" fill="#EDF0F7"/>
<path fill-rule="evenodd" clip-rule="evenodd" d="M292 243.166C292 240.865 293.865 239 296.166 239C298.468 239 300.333 240.865 300.333 243.166C300.333 245.468 298.468 247.333 296.166 247.333C293.865 247.333 292 245.468 292 243.166ZM296.166 242.333C295.706 242.333 295.333 242.706 295.333 243.166C295.333 243.627 295.706 244 296.166 244C296.627 244 297 243.627 297 243.166C297 242.706 296.627 242.333 296.166 242.333Z" fill="#94A3B8"/>
<path fill-rule="evenodd" clip-rule="evenodd" d="M285.333 237.333C285.333 234.572 287.572 232.333 290.333 232.333H313.666C316.428 232.333 318.666 234.572 318.666 237.333V260.666C318.666 263.428 316.428 265.666 313.666 265.666H290.333C287.572 265.666 285.333 263.428 285.333 260.666V237.333ZM290.333 235.666C289.413 235.666 288.666 236.413 288.666 237.333V260.666C288.666 261.381 289.116 261.991 289.748 262.228L307.488 244.488C308.139 243.837 309.194 243.837 309.845 244.488L315.333 249.976V237.333C315.333 236.413 314.587 235.666 313.666 235.666H290.333ZM315.333 254.69L308.666 248.023L294.357 262.333H313.666C314.587 262.333 315.333 261.587 315.333 260.666V254.69Z" fill="#94A3B8"/>
</svg>
