<svg width="20" height="43" viewBox="0 0 20 43" fill="none" xmlns="http://www.w3.org/2000/svg">
<path d="M17.0059 26.5083C16.209 26.7079 15.5292 27.0073 14.9651 27.405C14.8826 27.6871 14.8248 27.9966 14.7886 28.338C14.7539 28.6779 14.712 28.9888 14.6657 29.2709C14.6194 29.5529 14.5369 29.7525 14.4198 29.8683C14.2318 30.0331 13.928 30.1257 13.5057 30.1503C13.0833 30.1734 12.6147 30.1792 12.0983 30.1677C11.7931 30.1561 11.4851 30.1503 11.1755 30.1503C10.866 30.1503 10.5565 30.1619 10.2527 30.185C10.218 30.2082 10.1963 30.2588 10.1905 30.334C10.1847 30.4106 10.1819 30.483 10.1819 30.5538C10.1819 30.6594 10.1761 30.7245 10.1645 30.7477C10.341 30.8185 10.516 30.8446 10.6924 30.8272C10.8689 30.8099 11.0497 30.7838 11.2377 30.7477C11.3317 30.7361 11.4286 30.7216 11.5284 30.7043C11.6282 30.6869 11.7309 30.6724 11.8365 30.6609C12.1649 30.6493 12.4874 30.6927 12.8042 30.7925C13.1209 30.8923 13.4203 30.995 13.7009 31.1006C13.7718 31.1353 13.8441 31.1686 13.9208 31.1975C13.9974 31.2264 14.0698 31.2539 14.1406 31.277C14.0466 31.4651 13.8702 31.5851 13.6127 31.6372C13.3552 31.6893 13.0674 31.7167 12.7506 31.7167H12.3283C12.1056 31.7052 11.8597 31.6994 11.5892 31.6994C11.3187 31.6994 11.0642 31.7081 10.824 31.7254C10.5839 31.7428 10.3988 31.776 10.2701 31.8223C10.1876 31.857 10.124 31.9366 10.0763 32.0595C10.03 32.1825 10.0054 32.2852 10.0054 32.3676H10.542C10.7242 32.3676 10.9079 32.3734 11.096 32.385C11.6702 32.3965 12.227 32.3937 12.7666 32.3763C13.3061 32.3589 13.7458 32.2562 14.0857 32.0682C14.32 32.1738 14.5717 32.2505 14.8421 32.2967C15.1112 32.343 15.373 32.3908 15.6246 32.437C15.8763 32.4833 16.0962 32.5658 16.2842 32.6829C16.4722 32.8001 16.6009 32.9823 16.6704 33.2282C16.3073 33.357 15.885 33.4134 15.4033 33.396C14.9217 33.3786 14.4704 33.3468 14.0495 33.2991C14.2375 33.4756 14.4574 33.6188 14.7091 33.7301C14.9607 33.8415 15.2196 33.95 15.4829 34.0556C15.7461 34.1611 15.9718 34.2957 16.1598 34.4605C16.1598 34.6486 16.1887 34.7802 16.248 34.8569C16.3073 34.9335 16.3796 35.0131 16.4679 35.0941C16.5561 35.1765 16.6414 35.3284 16.7224 35.5511C16.6762 35.6683 16.5662 35.7681 16.397 35.8505C16.2263 35.933 16.0065 35.9619 15.7374 35.9388C15.6434 35.9272 15.4916 35.8361 15.2804 35.6654C15.0692 35.4962 14.8551 35.2966 14.6382 35.068C14.4212 34.8395 14.2361 34.6312 14.0842 34.4432C13.9671 34.2798 13.8759 34.1206 13.8109 33.9688C13.7458 33.8169 13.6734 33.6752 13.591 33.5464C13.5086 33.4177 13.374 33.3179 13.186 33.247C12.8808 33.2586 12.6205 33.2644 12.4035 33.2644C12.1866 33.2644 11.9725 33.2586 11.7613 33.247H11.0396C11.216 33.3873 11.3852 33.5609 11.5501 33.7663C11.7136 33.9717 11.8336 34.2031 11.9103 34.4605C11.9869 34.718 11.9768 35.0174 11.8843 35.3573C11.825 35.4629 11.7671 35.5193 11.7078 35.5251C11.6485 35.5309 11.5849 35.528 11.514 35.5164C11.4793 35.5048 11.4373 35.4933 11.391 35.4817C11.3448 35.4701 11.2912 35.4701 11.2334 35.4817C11.0815 35.3761 10.9658 35.2358 10.8906 35.0594C10.8139 34.8829 10.7416 34.7079 10.6707 34.5314C10.5999 34.355 10.4885 34.2147 10.3366 34.1091C10.4653 34.0151 10.5275 33.8892 10.5218 33.7316C10.516 33.5739 10.4899 33.4351 10.4422 33.3179C10.231 33.3063 10.0199 33.3063 9.80868 33.3179C9.59751 33.3295 9.39212 33.3468 9.19252 33.37C8.94663 33.3931 8.70219 33.4119 8.46209 33.422C8.22199 33.4336 7.99057 33.4163 7.76782 33.37C7.79096 33.5464 7.85316 33.6867 7.95296 33.7923C8.05276 33.8979 8.15545 34.0006 8.26104 34.1004C8.36663 34.2002 8.43027 34.3376 8.45486 34.5141C8.78319 34.4316 9.10284 34.4736 9.41382 34.637C9.72479 34.8019 9.99382 35.0189 10.2223 35.2879C10.4509 35.5584 10.5941 35.8158 10.6534 36.0617H10.6707C10.9282 36.0848 11.1741 36.0877 11.4098 36.0704C11.6442 36.053 11.9016 35.9561 12.1837 35.7797C13.3914 35.8621 14.2939 36.2483 14.8928 36.9411C14.5066 37.012 14.1392 37.0525 13.7935 37.0641C13.4478 37.0756 13.0819 37.0814 12.6942 37.0814C12.4122 37.0814 12.1142 37.0843 11.7975 37.0901C11.4807 37.0959 11.1292 37.1161 10.7416 37.1523C10.6129 37.2116 10.5362 37.2926 10.5131 37.3982C10.4899 37.5038 10.4567 37.5949 10.4162 37.6715C10.3742 37.7482 10.2672 37.7858 10.0907 37.7858C10.0676 37.8683 10.1139 37.9087 10.231 37.9087C10.3135 37.9087 10.3598 37.9203 10.3713 37.9435C10.3482 38.0375 10.2542 38.0838 10.0893 38.0838C10.2064 38.1894 10.3525 38.2631 10.529 38.3036C10.7054 38.3456 10.8978 38.3658 11.109 38.3658C11.2493 38.3658 11.3968 38.3629 11.5487 38.3571C11.7006 38.3513 11.8597 38.3427 12.0231 38.3311C12.2227 38.3195 12.4281 38.3108 12.6393 38.3051C12.8504 38.2993 13.0558 38.3022 13.2554 38.3137C13.3147 38.3137 13.3321 38.279 13.3075 38.2082C13.2844 38.1257 13.3075 38.0794 13.3784 38.0679C13.7892 38.0794 14.2158 38.1272 14.6628 38.2082C15.1083 38.2906 15.519 38.4135 15.8937 38.577C16.2683 38.7404 16.5561 38.9704 16.7557 39.2626C16.6038 39.4506 16.4332 39.5475 16.2451 39.5533C16.0571 39.5591 15.8401 39.5446 15.5943 39.5099C15.5002 39.4983 15.3975 39.4839 15.2862 39.4665C15.1748 39.4492 15.0605 39.4405 14.9434 39.4405C14.9087 39.4405 14.8436 39.4521 14.7496 39.4752C14.644 39.5099 14.5731 39.5215 14.5384 39.5099C14.4559 39.4983 14.3764 39.4723 14.3012 39.4304C14.2245 39.3899 14.1522 39.3624 14.0813 39.3508C13.1195 39.2568 12.1113 39.2336 11.0555 39.2799C9.99961 39.3262 9.00304 39.3913 8.06578 39.4737C7.66657 39.5085 7.25724 39.5446 6.8349 39.5793C6.41255 39.614 6.06686 39.737 5.79783 39.9482C5.30461 40.0306 4.89529 39.9597 4.56695 39.737C4.23862 39.5142 3.92765 39.2626 3.63403 38.9805C3.56316 38.9212 3.49662 38.8605 3.43154 38.7954C3.36645 38.7303 3.29991 38.6696 3.22904 38.6103C3.63982 38.645 3.9262 38.6623 4.09109 38.6623C4.43099 38.6623 4.79693 38.645 5.19035 38.6103C5.58377 38.5755 5.98442 38.5336 6.3952 38.4873C6.88697 38.441 7.37151 38.3962 7.84593 38.3557C8.32034 38.3152 8.7398 38.3065 9.10429 38.3296C9.17516 38.2356 9.2012 38.1156 9.18384 37.9695C9.16648 37.8234 9.14623 37.6788 9.12164 37.5385C9.11007 37.4676 9.0985 37.404 9.08693 37.3447C9.07536 37.2868 9.06957 37.2333 9.06957 37.187C8.42448 37.1986 7.88209 37.2217 7.44238 37.2579C7.00268 37.2926 6.56587 37.3287 6.13195 37.3635C5.90921 37.2116 5.70382 37.0438 5.51579 36.8616C5.32776 36.6793 5.12237 36.513 4.89963 36.3597C5.3104 36.2772 5.72262 36.228 6.13918 36.2107C6.55574 36.1933 6.98677 36.1847 7.43226 36.1847C7.67814 36.1847 7.92982 36.1818 8.18872 36.176C8.44618 36.1702 8.71087 36.1615 8.9799 36.1499C9.07391 36.1037 9.13466 36.0357 9.16504 35.9474C9.19396 35.8592 9.21421 35.7623 9.22723 35.6567C9.0985 35.622 9.00449 35.5396 8.94519 35.4108C8.88588 35.2821 8.83092 35.1447 8.7774 34.9972C8.72533 34.8511 8.64 34.7484 8.52284 34.6891C8.42882 34.9827 8.37097 35.243 8.34638 35.4716C8.32324 35.7001 8.1757 35.8737 7.90667 35.9908C7.64922 35.8968 7.47276 35.7652 7.37874 35.5945C7.28473 35.4253 7.22109 35.2373 7.18493 35.0319C7.15021 34.8265 7.07934 34.6428 6.97375 34.4779L7.11405 34.355C7.10248 34.2147 7.0967 34.0715 7.0967 33.9239C7.0967 33.7764 7.11984 33.6404 7.16757 33.5103C6.88552 33.4524 6.63096 33.438 6.40243 33.4669C6.1739 33.4958 5.94826 33.5406 5.72552 33.5985C5.56063 33.6332 5.3914 33.6694 5.21494 33.7041C5.03848 33.7388 4.84611 33.7504 4.63493 33.7388C4.77523 33.9037 4.88082 34.1047 4.95169 34.3448C5.02257 34.5849 5.12815 34.7874 5.26846 34.9523C5.04571 35.0811 4.85479 35.2749 4.69713 35.5323C4.53947 35.7898 4.3688 36.04 4.18655 36.2801C4.00431 36.5202 3.76131 36.6822 3.45612 36.7632C3.25652 36.6576 3.12201 36.5144 3.05114 36.3322C2.98026 36.1499 2.93398 35.9576 2.91083 35.7522C2.88769 35.5468 2.82839 35.3631 2.73438 35.1982C3.12201 35.0348 3.42864 34.8005 3.65717 34.4953C3.8857 34.1901 4.14605 33.921 4.43967 33.6867C4.19379 33.5349 3.93488 33.3873 3.66585 33.247C3.39538 33.1067 3.19722 32.9954 3.06849 32.9129C3.608 32.7364 4.188 32.6309 4.80995 32.5961C5.4319 32.5614 6.06397 32.5368 6.70906 32.5253C7.07211 32.5253 7.4366 32.5195 7.79964 32.5079C8.16269 32.4963 8.52139 32.4732 8.87287 32.437C8.93217 32.2606 8.97267 32.0914 8.99581 31.9265C8.5966 31.8686 8.18728 31.8469 7.76493 31.8643C7.34258 31.8816 6.94338 31.8672 6.56876 31.8209C6.26357 31.7746 5.98587 31.6893 5.73275 31.5663C5.48107 31.4434 5.27279 31.2467 5.10791 30.9776C5.37693 31.0239 5.66766 31.0427 5.97863 31.0297C6.28961 31.0181 6.62662 30.995 6.98966 30.9588C7.29485 30.9357 7.6174 30.9154 7.9573 30.8966C8.2972 30.8793 8.65446 30.8764 9.03052 30.888C9.03052 30.8417 9.02474 30.7882 9.01317 30.7303C9.00159 30.671 8.98424 30.6131 8.9611 30.5538C8.94952 30.5076 8.93506 30.4598 8.9177 30.4135C8.90035 30.3673 8.89167 30.3195 8.89167 30.2732C8.49246 30.2139 8.05276 30.211 7.57256 30.2646C7.09091 30.3166 6.70472 30.4078 6.4111 30.5379C6.14063 30.4323 5.86292 30.3354 5.57509 30.2472C5.28726 30.159 5.05005 30.0216 4.86347 29.8335V29.1118C4.87504 28.7603 4.87793 28.3814 4.87214 27.9778C4.86636 27.5728 4.80995 27.178 4.70436 26.7903C4.49319 26.65 4.28202 26.5083 4.07084 26.368C3.85967 26.2277 3.68899 26.0454 3.56027 25.8227C3.59498 25.8227 3.65428 25.8053 3.73673 25.7706C3.84231 25.7475 3.96526 25.7214 4.10556 25.6911C4.24586 25.6621 4.39917 25.6766 4.56262 25.7345C5.09055 25.571 5.71539 25.4654 6.43569 25.4177C7.15744 25.3714 7.91246 25.341 8.70508 25.3295C9.49626 25.3179 10.2672 25.289 11.0179 25.2412V25.4177C12.0622 25.2065 13.0761 25.1096 14.0611 25.127C15.0461 25.1443 16.0195 25.4061 16.9813 25.9095C16.9929 25.9326 17.0045 25.9688 17.0161 26.0151C17.0508 26.0859 17.0739 26.1583 17.0869 26.2349C17.0985 26.3116 17.0696 26.4027 16.9987 26.5068L17.0059 26.5083ZM8.79187 26.2103C8.36952 26.245 7.95007 26.2667 7.53351 26.2725C7.11694 26.2783 6.70906 26.3347 6.3113 26.4403C6.252 26.5922 6.24332 26.7744 6.28527 26.9856C6.32577 27.1968 6.37061 27.379 6.41689 27.5309C6.77994 27.4369 7.18782 27.3935 7.63909 27.3993C8.09037 27.405 8.48089 27.3501 8.80922 27.2315L8.79187 26.2118V26.2103ZM8.8801 29.4459C8.86853 29.3056 8.86274 29.1089 8.86274 28.8572C8.86274 28.6056 8.8396 28.3857 8.79187 28.1977C8.34638 28.2208 7.91825 28.2483 7.50747 28.2772C7.0967 28.3061 6.73944 28.3626 6.43425 28.4436V28.7256C6.42268 28.8659 6.42268 29.0048 6.43425 29.1393C6.44582 29.2738 6.49933 29.3938 6.5919 29.4994C6.77993 29.4763 6.96363 29.4647 7.14587 29.4647H8.26249C8.45052 29.4647 8.65591 29.4589 8.87865 29.4474L8.8801 29.4459ZM13.1889 25.9818C12.7203 26.0049 12.1952 26.0252 11.6152 26.044C11.0352 26.0628 10.4682 26.0758 9.91861 26.0874C10.0126 26.2277 10.0965 26.3926 10.1732 26.5792C10.2498 26.7672 10.2585 26.9552 10.1992 27.1418C10.516 27.1649 10.8356 27.2127 11.1582 27.2821C11.4807 27.353 11.7642 27.447 12.0115 27.5641C12.2574 27.6813 12.4223 27.8274 12.5033 28.0039C12.4093 28.0154 12.3153 28.0241 12.2213 28.0299C12.1272 28.0357 12.0332 28.0444 11.9407 28.0559C11.6832 28.0906 11.4127 28.121 11.1321 28.1442C10.8501 28.1673 10.5695 28.1673 10.2874 28.1442C10.2166 28.2845 10.1761 28.4349 10.1645 28.5925C10.1529 28.7502 10.1471 28.9006 10.1471 29.0409C10.1471 29.1002 10.1442 29.1523 10.1385 29.1986C10.1327 29.2449 10.1298 29.2926 10.1298 29.3389C10.2354 29.3504 10.367 29.3533 10.5261 29.3476C10.6837 29.3418 10.8573 29.3331 11.0453 29.3215C11.3505 29.2984 11.6789 29.2839 12.0303 29.2781C12.3818 29.2723 12.7044 29.3099 12.998 29.3924C13.0211 29.2752 13.0443 29.161 13.0689 29.0496C13.092 28.9382 13.1151 28.8297 13.1397 28.7242C13.2453 28.2324 13.3249 27.7565 13.3769 27.2995C13.429 26.8424 13.3683 26.4027 13.1918 25.9804L13.1889 25.9818Z" fill="#0A0A0A"/>
<path d="M17.3032 41.9027C16.1374 41.612 15.3448 41.4558 13.949 41.4486C13.1925 41.4486 11.6767 41.4471 9.82824 41.4457C7.87127 41.4457 5.73929 41.4457 3.54511 41.4457C3.27029 41.4457 2.99548 41.4457 2.71922 41.4457C2.48635 41.4457 2.27518 41.4095 2.0669 41.3314C1.65467 41.1781 1.30175 40.8613 1.10649 40.4636C1.00814 40.2654 0.947387 40.0499 0.927138 39.8286L0.918459 39.6579V39.4497V39.0317C0.918459 38.4748 0.918459 37.9208 0.918459 37.3683C0.918459 32.9525 0.918459 28.7377 0.917013 25.6265C0.917013 25.4327 0.917013 25.2432 0.917013 25.0566C0.922798 24.9091 0.93437 24.7644 0.971976 24.6285C1.03996 24.3566 1.16724 24.1165 1.32779 23.9255C1.65178 23.5422 2.07413 23.3557 2.42126 23.3108C2.50804 23.292 2.59338 23.2949 2.67149 23.2891C2.7684 23.2891 2.86096 23.2891 2.94486 23.2891C3.11698 23.2891 3.26306 23.2891 3.38167 23.2891C3.61887 23.2891 3.74326 23.2891 3.74326 23.2891C3.74326 23.2891 5.75086 23.2891 8.86205 23.2891C10.4169 23.2891 12.2495 23.2891 14.2441 23.2891C15.2392 23.2891 16.2734 23.2906 17.335 23.292C17.7603 23.2949 18.1812 23.467 18.4994 23.7606C18.819 24.0528 19.0258 24.4679 19.0635 24.9047L19.0721 25.0725V25.2794V25.6945C19.0721 25.9722 19.0721 26.2499 19.0721 26.5276C19.0721 27.0845 19.0721 27.6413 19.0721 28.1996C19.0721 29.3148 19.0721 30.4271 19.0721 31.5249C19.0721 33.7017 19.0721 35.8163 19.0721 37.7574C19.0721 38.2188 19.0721 38.6382 19.0721 38.9897C19.0721 39.1662 19.0721 39.3238 19.0721 39.4627C19.0721 39.5321 19.0721 39.5957 19.0721 39.6551C19.0707 39.7028 19.0678 39.7462 19.0663 39.7852C19.0504 40.0629 18.9853 40.3059 18.8928 40.5214C18.8002 40.737 18.6816 40.9279 18.5399 41.1C18.3981 41.2721 18.2332 41.4298 18.0322 41.5672C17.8311 41.7046 17.5925 41.8232 17.3003 41.8984C17.8861 42.0402 18.4777 41.9317 18.9767 41.6033C19.2269 41.437 19.4554 41.2114 19.6348 40.9178C19.8141 40.6256 19.9443 40.2611 19.9718 39.8416C19.9747 39.7867 19.979 39.7172 19.9805 39.6536C19.9805 39.5943 19.9805 39.5307 19.9805 39.4612C19.9805 39.3224 19.9805 39.1633 19.9805 38.9883C19.9805 38.6368 19.9805 38.2159 19.9805 37.7559C19.9805 35.8149 19.9805 33.7003 19.9805 31.5234C19.9805 30.4256 19.9805 29.3133 19.9805 28.1982C19.9805 27.6413 19.9805 27.083 19.9805 26.5261C19.9805 26.2484 19.9805 25.9707 19.9805 25.693V25.2779V25.0711C19.979 24.993 19.9732 24.9062 19.9689 24.8252C19.9125 24.1613 19.5972 23.5292 19.1141 23.0866C18.6339 22.6426 17.9888 22.3822 17.348 22.3764C16.2806 22.3764 15.2392 22.3764 14.2397 22.375C12.2452 22.375 10.414 22.375 8.85771 22.375C5.74652 22.375 3.73892 22.375 3.73892 22.375C3.73892 22.375 3.61309 22.375 3.37733 22.375C3.25872 22.375 3.11264 22.375 2.94052 22.375C2.85373 22.375 2.75972 22.375 2.65847 22.375C2.53987 22.3822 2.41258 22.3822 2.28096 22.4068C1.75303 22.4777 1.11228 22.7583 0.623395 23.3383C0.381848 23.6261 0.188031 23.9906 0.0838908 24.4028C0.0274815 24.6082 0.00723196 24.8266 0.00144639 25.0494C0.00144639 25.236 0.00144639 25.4254 0.00144639 25.6207C0.00144639 28.7319 0.00144639 32.9467 0 37.3625C0 37.915 0 38.469 0 39.0259V39.4439V39.6522C0.00144639 39.7288 0.00723196 39.817 0.0115711 39.8995C0.040499 40.2336 0.133068 40.5634 0.283493 40.8642C0.58145 41.4674 1.11372 41.9461 1.74146 42.1805C2.05243 42.2991 2.39667 42.354 2.71488 42.354C2.99114 42.354 3.26595 42.354 3.54077 42.354C5.73639 42.354 7.86838 42.354 9.8239 42.354C11.6709 42.354 13.1868 42.3511 13.9447 42.3511C15.3404 42.3439 16.1331 42.1877 17.2989 41.897L17.3032 41.9027Z" fill="#0A0A0A"/>
<path d="M2.7036 1.31644C3.8694 1.60716 4.66202 1.76337 6.05779 1.7706C6.81425 1.7706 8.33007 1.77205 10.1786 1.7735C12.1355 1.7735 14.2675 1.7735 16.4617 1.7735C16.7365 1.7735 17.0113 1.7735 17.2876 1.7735C17.5204 1.7735 17.7316 1.80965 17.9399 1.88776C18.3521 2.04108 18.705 2.35784 18.9003 2.7556C18.9987 2.95375 19.0594 3.16926 19.0797 3.39056L19.0883 3.56124V3.76952V4.18752C19.0883 4.74439 19.0883 5.29835 19.0883 5.85088C19.0883 10.2667 19.0883 14.4815 19.0898 17.5927C19.0898 17.7865 19.0898 17.976 19.0898 18.1626C19.084 18.3101 19.0724 18.4547 19.0348 18.5907C18.9668 18.8626 18.8396 19.1027 18.679 19.2936C18.355 19.6769 17.9327 19.8635 17.5855 19.9084C17.4988 19.9272 17.4134 19.9243 17.3353 19.9301C17.2384 19.9301 17.1458 19.9301 17.0619 19.9301C16.8898 19.9301 16.7437 19.9301 16.6251 19.9301C16.3879 19.9301 16.2635 19.9301 16.2635 19.9301C16.2635 19.9301 14.2559 19.9301 11.1448 19.9301C9.58988 19.9301 7.7573 19.9301 5.76272 19.9301C4.7676 19.9301 3.73343 19.9286 2.67178 19.9272C2.24654 19.9243 1.82564 19.7522 1.50744 19.4585C1.18778 19.1664 0.980949 18.7513 0.943343 18.3144L0.934665 18.1467V17.9398V17.5247C0.934665 17.247 0.934665 16.9693 0.934665 16.6916C0.934665 16.1347 0.934665 15.5779 0.934665 15.0196C0.934665 13.9044 0.934665 12.7921 0.934665 11.6943C0.934665 9.51748 0.934665 7.40285 0.934665 5.4618C0.934665 5.0004 0.934665 4.58094 0.934665 4.22947C0.934665 4.05301 0.934665 3.89535 0.934665 3.7565C0.934665 3.68707 0.934665 3.62343 0.934665 3.56413C0.936111 3.5164 0.939004 3.47301 0.94045 3.43395C0.956361 3.15625 1.02145 2.91325 1.11402 2.69774C1.20659 2.48223 1.32519 2.2913 1.46694 2.11918C1.60868 1.94706 1.77357 1.78941 1.97462 1.652C2.17567 1.51459 2.41432 1.39599 2.7065 1.32077C2.12071 1.17903 1.52913 1.28751 1.03013 1.61584C0.779901 1.78217 0.551371 2.00781 0.372018 2.30143C0.189773 2.59071 0.0595973 2.95375 0.0321159 3.37321C0.0292231 3.42817 0.0248839 3.4976 0.0234375 3.56124C0.0234375 3.62054 0.0234375 3.68418 0.0234375 3.75361C0.0234375 3.89246 0.0234375 4.05156 0.0234375 4.22658C0.0234375 4.57805 0.0234375 4.99895 0.0234375 5.4589C0.0234375 7.39996 0.0234375 9.51459 0.0234375 11.6914C0.0234375 12.7892 0.0234375 13.9015 0.0234375 15.0167C0.0234375 15.5735 0.0234375 16.1318 0.0234375 16.6887C0.0234375 16.9664 0.0234375 17.2441 0.0234375 17.5218V17.9369V18.1438C0.0248839 18.2219 0.0306695 18.3087 0.0350086 18.3897C0.0914179 19.0535 0.406732 19.6856 0.889827 20.1282C1.37003 20.5723 2.01512 20.8326 2.65587 20.8384C3.72331 20.8384 4.76471 20.8384 5.76417 20.8398C7.75874 20.8398 9.58988 20.8398 11.1462 20.8398C14.2574 20.8398 16.265 20.8398 16.265 20.8398C16.265 20.8398 16.3908 20.8398 16.6266 20.8398C16.7452 20.8398 16.8913 20.8398 17.0634 20.8398C17.1502 20.8398 17.2442 20.8398 17.3454 20.8398C17.464 20.8326 17.5913 20.8326 17.7229 20.808C18.2509 20.7371 18.8916 20.4565 19.3805 19.8765C19.6221 19.5887 19.8159 19.2242 19.92 18.812C19.9764 18.6066 19.9967 18.3882 20.0025 18.1655C20.0025 17.9789 20.0025 17.7894 20.0025 17.5941C20.0025 14.4829 20.0025 10.2682 20.0039 5.85232C20.0039 5.2998 20.0039 4.74583 20.0039 4.18897V3.77096V3.56268C20.0025 3.48602 19.9967 3.39779 19.9923 3.31535C19.9634 2.98123 19.8708 2.65146 19.7204 2.35061C19.4225 1.74746 18.8902 1.2687 18.2624 1.03439C17.9515 0.914338 17.6072 0.859375 17.2876 0.859375C17.0113 0.859375 16.7365 0.859375 16.4617 0.859375C14.2661 0.859375 12.1341 0.859375 10.1786 0.859375C8.33152 0.859375 6.8157 0.862268 6.05779 0.862268C4.66202 0.8695 3.8694 1.02571 2.7036 1.31644Z" fill="#0A0A0A"/>
<path d="M14.0601 17.387C14.0441 17.3566 14.0225 17.3291 13.995 17.3074C13.995 17.306 13.9921 17.3031 13.9906 17.3002C13.9906 17.3002 13.9892 17.2944 13.9892 17.28C13.9892 17.2221 13.9472 17.1744 13.8908 17.1642C13.7129 17.1368 13.5611 17.0963 13.4381 17.0442C13.3036 16.9878 13.1662 16.9357 13.0288 16.8909C12.8827 16.8431 12.7019 16.8186 12.4907 16.8186C12.4661 16.8186 12.4415 16.8272 12.4213 16.8417C12.3721 16.8779 12.3446 16.9212 12.3374 16.9675C12.336 16.9762 12.3345 16.9863 12.3331 16.9965C12.2217 16.9892 12.1176 16.9849 12.025 16.9849H11.6952C11.5477 16.9791 11.4016 16.9748 11.257 16.9719C11.1427 16.969 11.0168 16.9603 10.8809 16.9444C10.878 16.9155 10.878 16.8865 10.8794 16.8619C10.8794 16.8518 10.8809 16.8431 10.8838 16.8345C10.9735 16.8374 11.066 16.8345 11.1629 16.8272C11.2786 16.8186 11.3929 16.8113 11.5115 16.8041C11.6547 16.7867 11.7921 16.7752 11.9208 16.7694C12.0409 16.7636 12.1436 16.7723 12.226 16.7925C12.2622 16.8012 12.3012 16.7896 12.3302 16.765C12.3475 16.7506 12.3591 16.7303 12.3663 16.7086C12.4155 16.7057 12.4589 16.6725 12.4719 16.6247C12.5081 16.4975 12.5399 16.3514 12.5674 16.1894C12.5934 16.0361 12.6296 15.8784 12.6744 15.7236C12.7164 15.5775 12.7843 15.4488 12.8726 15.3374C12.8957 15.3085 12.9001 15.2695 12.8899 15.2348C12.9753 15.2174 13.0418 15.2015 13.0924 15.187C13.1575 15.1668 13.2732 15.1364 13.4338 15.0959C13.4858 15.0829 13.522 15.0366 13.522 14.9831C13.522 14.9498 13.5148 14.9151 13.4989 14.8804C13.4887 14.8587 13.4786 14.8341 13.4685 14.8139C13.4569 14.7893 13.4482 14.7632 13.4425 14.7386C13.4757 14.7169 13.4974 14.6793 13.496 14.6388C13.496 14.594 13.4685 14.5535 13.4265 14.5347C13.253 14.4566 13.0924 14.393 12.9463 14.3423C12.8003 14.2917 12.6527 14.244 12.5066 14.2006C12.3591 14.1557 12.1884 14.108 11.9932 14.0545C11.9671 14.0473 11.9382 14.0502 11.9136 14.0617C11.74 14.1427 11.5404 14.1919 11.322 14.2049C11.1427 14.2165 10.9865 14.1919 10.8592 14.1341L10.8621 14.069C11.0125 14.04 11.1716 14.0227 11.3394 14.0154C11.7111 13.9995 12.0959 14.0053 12.4936 13.9981C12.6715 13.9952 12.8523 13.9851 13.0302 13.9663C13.062 13.9634 13.0924 13.946 13.1112 13.92C13.1315 13.8939 13.1387 13.8607 13.1329 13.8289C13.0968 13.6278 13.0071 13.489 12.8653 13.4166C12.7467 13.3559 12.6079 13.3125 12.4546 13.2908C12.3244 13.272 12.1957 13.2344 12.0713 13.1809C12.0279 13.1621 11.9787 13.1708 11.944 13.204C11.8254 13.3168 11.688 13.3718 11.5231 13.3646C11.3322 13.3588 11.1311 13.3414 10.9243 13.3125C10.9185 13.3125 10.9142 13.3111 10.9084 13.3096C10.9113 13.2995 10.9142 13.2879 10.9185 13.2778C10.9199 13.2734 10.9228 13.2677 10.9228 13.2619C10.9286 13.2373 10.9344 13.2113 10.9416 13.1838C10.9489 13.1491 10.9532 13.11 10.9532 13.0666C10.9532 13.0449 10.9474 13.0218 10.9344 13.003C10.878 12.9147 10.8057 12.8395 10.7203 12.7802C11.014 12.76 11.2902 12.747 11.5433 12.7426C11.8789 12.7368 12.2246 12.7426 12.5703 12.7556C12.9145 12.7701 13.2978 12.7976 13.7115 12.8381C13.7433 12.8424 13.7737 12.8309 13.7983 12.8106C13.8229 12.7904 13.8373 12.7614 13.8388 12.7296C13.8532 12.5199 13.7867 12.355 13.6406 12.2393C13.5133 12.138 13.3499 12.0643 13.1546 12.0194C12.9738 11.9775 12.7901 11.9457 12.6093 11.9211C12.5659 11.9109 12.5385 11.9066 12.511 11.9124C12.2955 11.9572 12.0771 11.9833 11.8587 11.989C11.6359 11.9948 11.4059 11.9948 11.1716 11.989H10.6972C10.7131 11.9457 10.7261 11.9052 10.7348 11.8748C10.7652 11.7967 10.7912 11.7186 10.8129 11.6463C10.8389 11.558 10.8433 11.4727 10.8288 11.3902C10.7984 11.2254 10.7088 11.101 10.5598 11.0185C10.4282 10.9462 10.2705 10.9014 10.0868 10.8855C9.91325 10.8695 9.73535 10.8724 9.55889 10.8898C9.38243 10.9086 9.22766 10.9361 9.09893 10.9722C9.06422 10.9824 9.03529 11.0084 9.02227 11.0417C9.00926 11.0749 9.01215 11.114 9.03095 11.1444C9.08881 11.2384 9.1727 11.315 9.28118 11.3743C9.37375 11.425 9.47499 11.4741 9.58203 11.5204C9.67315 11.5595 9.75415 11.6086 9.82792 11.6708C9.88866 11.7142 9.92627 11.7692 9.94652 11.8401C9.96098 11.895 9.94797 11.9731 9.90891 12.0672C9.78163 12.0672 9.64422 12.0729 9.49814 12.0802C9.32457 12.0889 9.14956 12.099 8.9731 12.1105C8.61439 12.1337 8.25135 12.1496 7.89119 12.1583C7.54261 12.167 7.23598 12.1366 6.97852 12.07C6.92934 12.057 6.87727 12.0773 6.84979 12.1207C6.83533 12.1438 6.8252 12.1453 6.81942 12.1467C6.7659 12.1539 6.71672 12.1641 6.67189 12.1771C6.59378 12.2017 6.53882 12.2668 6.50989 12.3723C6.507 12.3825 6.50555 12.3926 6.50555 12.4027C6.50555 12.5546 6.59523 12.6153 6.68056 12.6197C6.69937 12.6197 6.71817 12.6312 6.73263 12.6428C6.73697 12.6472 6.75722 12.6703 6.80061 12.7513C6.83822 12.8251 6.88161 12.8916 6.92356 12.9451C6.96984 13.0102 7.03782 13.0536 7.12171 13.071C7.15498 13.0782 7.18102 13.0912 7.19693 13.1057C7.24176 13.1548 7.26346 13.2026 7.26346 13.2561C7.26346 13.3313 7.25767 13.4123 7.24755 13.4991C7.24176 13.5251 7.23743 13.5497 7.23309 13.5757C7.23019 13.6047 7.2273 13.6322 7.22875 13.651C7.21139 13.8636 7.18391 14.0993 7.1463 14.351C7.1087 14.6027 7.0653 14.8457 7.01613 15.0742C6.9684 15.2969 6.91054 15.4821 6.84401 15.6267C6.83967 15.6354 6.83677 15.6441 6.83533 15.6528C6.8252 15.7034 6.83533 15.7526 6.86426 15.7916C6.83533 15.8263 6.81074 15.8755 6.80351 15.9493C6.79483 16.0288 6.7847 16.1156 6.77313 16.2125C6.76446 16.279 6.73697 16.3282 6.68635 16.3673C6.66321 16.3861 6.6473 16.4121 6.64296 16.441C6.60969 16.6464 6.54026 16.8706 6.43612 17.1078C6.32764 17.3537 6.2235 17.5851 6.12515 17.8007C6.11792 17.8166 6.11502 17.8325 6.11502 17.8498C6.11502 17.8845 6.11936 17.9135 6.12804 17.9395C6.08754 17.9612 6.04994 17.9916 6.01522 18.0292C5.94869 18.0986 5.89807 18.1695 5.86335 18.2375C5.8431 18.2794 5.84889 18.3286 5.87782 18.3633C5.86625 18.3749 5.84889 18.3879 5.82864 18.4024C5.72884 18.4761 5.66809 18.5571 5.65073 18.6453C5.63916 18.7018 5.67243 18.7582 5.72594 18.7784C5.8648 18.8276 6.00365 18.8334 6.13672 18.7987C6.27702 18.7611 6.39707 18.6656 6.49543 18.5108C6.51134 18.4862 6.51423 18.4559 6.50844 18.4255C6.63139 18.3647 6.71528 18.2736 6.76012 18.155C6.7847 18.0885 6.82231 18.0422 6.87293 18.0147C6.90331 17.9988 6.925 17.9684 6.93224 17.9352C6.93513 17.9193 6.95104 17.8759 7.02915 17.805C7.04361 17.792 7.05373 17.7761 7.05952 17.7573C7.09857 17.6444 7.14052 17.5316 7.18536 17.4246C7.1868 17.4203 7.18969 17.4159 7.19114 17.4116C7.19982 17.4231 7.21139 17.4333 7.22441 17.4419C7.25044 17.4579 7.27937 17.4767 7.3083 17.4969C7.33867 17.5186 7.36905 17.5418 7.40231 17.5678C7.56431 17.6821 7.73932 17.7876 7.92012 17.8831C8.12262 17.9887 8.35983 18.0162 8.62596 17.9641C8.65634 17.9583 8.68382 17.9395 8.70118 17.9149C8.71275 17.8976 8.72287 17.8802 8.733 17.8629C8.77349 17.8571 8.81399 17.8498 8.85594 17.8412C8.91379 17.8296 8.97454 17.818 9.04108 17.8064C9.2132 17.7717 9.40557 17.7399 9.61096 17.711C9.77295 17.6878 9.92772 17.6835 10.0724 17.6994C10.0767 17.7558 10.0781 17.8151 10.0752 17.8788C10.0724 17.98 10.068 18.0798 10.0622 18.1825C10.0564 18.4197 10.0622 18.6482 10.0752 18.8623C10.0926 19.1154 10.1982 19.2948 10.3862 19.396C10.4036 19.4047 10.4224 19.4105 10.4412 19.4105C10.4701 19.4105 10.499 19.3989 10.5207 19.3787C10.6466 19.2586 10.7362 19.1111 10.7854 18.939C10.8317 18.7799 10.8592 18.6106 10.8693 18.4385C10.878 18.2722 10.8823 18.1131 10.8823 17.9655V17.7674C10.8823 17.7428 10.8823 17.7197 10.8823 17.698C11.0646 17.6734 11.2598 17.6618 11.4623 17.6647C11.7053 17.6676 11.9599 17.6748 12.2246 17.6864C12.2911 17.6864 12.3605 17.6893 12.4314 17.6951L12.6484 17.7124C12.9189 17.7298 13.1778 17.7385 13.4164 17.7385C13.6797 17.7385 13.8793 17.6922 14.0282 17.5967C14.0615 17.575 14.0818 17.5389 14.0818 17.4984C14.0818 17.4579 14.0731 17.4188 14.0557 17.3855L14.0601 17.387ZM7.32132 17.0789C7.42401 16.8417 7.51513 16.6059 7.5889 16.376C7.65543 16.172 7.69015 15.9608 7.69304 15.7453C7.70895 15.7395 7.72341 15.7309 7.73643 15.7178L7.7885 15.6658C7.82321 15.6296 7.83334 15.5761 7.8102 15.5313C7.80152 15.5139 7.79863 15.5052 7.79863 15.5038C7.80007 15.4937 7.80152 15.4835 7.80007 15.4749C7.89119 15.2622 7.97219 15.0294 8.04307 14.7791C8.07633 14.8312 8.12262 14.8905 8.18192 14.957C8.25569 15.0409 8.32222 15.1161 8.37863 15.1841C8.37429 15.2695 8.37429 15.3505 8.37718 15.4242C8.38008 15.511 8.38441 15.5935 8.39165 15.6774C8.40322 15.7612 8.41045 15.8466 8.4119 15.9334C8.41479 16.0144 8.40466 16.0997 8.38441 16.1894C8.37863 16.2154 8.38152 16.2443 8.39309 16.2675C8.409 16.2993 8.42636 16.3268 8.44806 16.3514C8.46252 16.3687 8.47698 16.3846 8.49434 16.402C8.51893 16.4425 8.54063 16.4787 8.55798 16.5119C8.56377 16.522 8.55798 16.5423 8.55509 16.5568C8.53918 16.6045 8.55509 16.6566 8.59559 16.6869C8.77783 16.8229 8.97165 16.8996 9.1727 16.9126C9.35494 16.9241 9.56612 16.9241 9.80188 16.9126C9.86408 16.9068 9.92627 16.9024 9.98557 16.8996C10.0087 16.8996 10.0333 16.8981 10.0593 16.8967C10.0608 16.9184 10.0622 16.9372 10.0622 16.9545V17.0225C9.96098 17.0413 9.84672 17.0543 9.72088 17.0587C9.56033 17.0644 9.40123 17.0688 9.24357 17.0717C9.08158 17.0746 8.93404 17.0861 8.80242 17.1049C8.74746 17.1151 8.6925 17.1194 8.63898 17.1165C8.57968 17.1136 8.52182 17.1093 8.46541 17.1035C8.41045 17.0977 8.35693 17.102 8.30197 17.0992C8.24267 17.0963 8.18337 17.0992 8.12696 17.1035C7.99678 17.1151 7.87095 17.1194 7.75234 17.1165C7.63518 17.1136 7.50356 17.1006 7.36326 17.0789C7.35748 17.0789 7.35024 17.0775 7.34446 17.0775C7.33578 17.0775 7.3271 17.0775 7.31842 17.0804L7.32132 17.0789ZM9.28118 16.2675C9.27684 16.2443 9.27395 16.2183 9.27395 16.1894V15.9247C9.39689 15.9478 9.52996 15.9565 9.66881 15.9493C9.80477 15.942 9.93495 15.9305 10.0579 15.9131C10.0608 15.9493 10.0622 15.9883 10.0622 16.0303C10.0622 16.0346 10.0622 16.0404 10.0622 16.0447C10.068 16.0867 10.0695 16.1301 10.0695 16.1706C10.0695 16.1821 10.0695 16.1937 10.0695 16.2053C9.90891 16.2342 9.76427 16.2559 9.63699 16.2704C9.53574 16.2819 9.41714 16.2805 9.28118 16.266V16.2675ZM9.88866 15.2565C9.76861 15.2738 9.64567 15.2868 9.52273 15.2955C9.43594 15.3013 9.34916 15.3013 9.25948 15.2941C9.26238 15.2565 9.26382 15.2188 9.26382 15.1783C9.26961 15.1378 9.27395 15.0959 9.27684 15.0554C9.27684 15.0395 9.27829 15.0236 9.27684 15.0091C9.38821 14.9802 9.50971 14.9527 9.63844 14.9296C9.76861 14.905 9.90313 14.9035 10.0391 14.9252C10.0434 14.9816 10.0463 15.0409 10.0507 15.1031C10.0536 15.1523 10.055 15.1957 10.0564 15.2362C10.0449 15.2376 10.0347 15.2391 10.0232 15.2405C9.97979 15.2463 9.93495 15.2521 9.88577 15.2579L9.88866 15.2565ZM9.93784 13.0955C9.98991 13.1838 10.0029 13.2807 9.97689 13.3892C9.83659 13.4022 9.68328 13.4094 9.52128 13.4123C9.32602 13.4152 9.13075 13.4166 8.93838 13.4166H8.62596C8.52182 13.4166 8.42347 13.4195 8.33234 13.4253C8.31354 13.4253 8.29474 13.4325 8.27883 13.4427C8.28461 13.3501 8.28895 13.2575 8.2904 13.165C8.2904 13.1563 8.2904 13.1462 8.28751 13.1375C8.27304 13.0738 8.24556 13.0189 8.20506 12.9726C8.3121 12.948 8.42781 12.9292 8.5493 12.9176C8.74312 12.9003 8.94417 12.8873 9.14666 12.8786C9.33903 12.8699 9.52417 12.8583 9.69629 12.8424C9.7932 12.9017 9.8742 12.9856 9.93929 13.0941L9.93784 13.0955ZM8.25569 13.6987C8.30776 13.8621 8.40322 13.9807 8.54207 14.0502C8.69828 14.1283 8.8921 14.1688 9.11774 14.1688C9.32891 14.1688 9.54876 14.1601 9.77729 14.1413C9.82791 14.1355 9.88143 14.1312 9.93784 14.1283C9.95664 14.1283 9.974 14.1268 9.99136 14.1254V14.1876C9.99136 14.1962 9.99136 14.2064 9.99136 14.2179C9.893 14.2367 9.79899 14.2498 9.70931 14.2555C9.58926 14.2642 9.475 14.2715 9.36652 14.2772C9.20597 14.283 9.04831 14.296 8.89933 14.3134C8.7518 14.3308 8.60427 14.3785 8.45818 14.4551C8.39888 14.4436 8.33234 14.4392 8.26292 14.445C8.21085 14.4494 8.16312 14.4609 8.12262 14.4797C8.12985 14.4494 8.13708 14.419 8.14287 14.3886C8.19494 14.1572 8.23254 13.9258 8.25713 13.6972L8.25569 13.6987ZM10.8751 16.1011C10.8751 16.1011 10.8751 16.0867 10.8737 16.0809C10.8635 16.0259 10.8592 15.9724 10.8621 15.9232C10.8621 15.8986 10.8693 15.8712 10.8794 15.8437C10.9575 15.8393 11.0328 15.8408 11.1138 15.8495C11.2396 15.8553 11.3524 15.8495 11.4508 15.835C11.5187 15.8234 11.5795 15.796 11.6287 15.754C11.607 15.8885 11.5795 16.0129 11.5506 16.1272C11.4667 16.104 11.3857 16.0954 11.3061 16.0997C11.2034 16.1055 11.1007 16.1142 10.998 16.1272L10.878 16.1445C10.878 16.1286 10.8765 16.1156 10.8765 16.1026L10.8751 16.1011ZM11.2627 15.242C11.1369 15.2044 11.0038 15.1711 10.8664 15.1436C10.8693 15.1031 10.8722 15.0583 10.8751 15.0091C10.878 14.9542 10.8823 14.9035 10.8852 14.8544C10.9084 14.8529 10.9315 14.8515 10.9547 14.85C11.014 14.8471 11.0675 14.8428 11.1138 14.837C11.2367 14.8254 11.3539 14.8153 11.4681 14.8066C11.5477 14.8008 11.633 14.8008 11.7227 14.8095C11.7256 14.905 11.7212 15.0192 11.7082 15.1509C11.6995 15.2463 11.688 15.3447 11.675 15.4445C11.5578 15.3577 11.4204 15.2912 11.2642 15.2434L11.2627 15.242Z" fill="#0A0A0A"/>
<path d="M14.4167 6.73149C14.3314 6.57239 14.2302 6.42485 14.1173 6.29323C14.006 6.16306 13.8816 6.04011 13.7485 5.9244C13.7239 5.90415 13.6921 5.89403 13.6617 5.89692C13.6559 5.87378 13.6429 5.85353 13.6256 5.83762C13.5995 5.81592 13.5663 5.8058 13.533 5.81014C13.5214 5.81158 13.5113 5.81014 13.4997 5.80146C13.4694 5.78121 13.4346 5.75373 13.3912 5.71757C13.3435 5.68141 13.2943 5.64669 13.2466 5.61343C13.1916 5.57582 13.1323 5.55846 13.0687 5.5628C12.94 5.4442 12.791 5.34584 12.6261 5.27063C12.4598 5.19542 12.3021 5.1043 12.156 5.0045C12.0042 4.89746 11.8494 4.7644 11.6975 4.60963C11.5413 4.45053 11.3865 4.28709 11.2347 4.12075C11.0799 3.95152 10.9237 3.79676 10.7675 3.65935C10.6677 3.57112 10.5549 3.49446 10.4334 3.42937C10.335 3.37586 10.254 3.30932 10.1947 3.22833C10.1658 3.18927 10.1441 3.15311 10.1311 3.1184C10.1079 3.06054 10.0703 3.00414 10.0183 2.95207C9.99656 2.93037 9.96619 2.91735 9.93581 2.91735C9.9199 2.91735 9.90544 2.92024 9.89098 2.92603C9.8794 2.91735 9.86928 2.90867 9.85915 2.89855C9.80853 2.84792 9.77092 2.82189 9.73477 2.80887C9.71741 2.80309 9.6986 2.80164 9.68125 2.80453C9.65521 2.80887 9.63207 2.80743 9.61182 2.80309C9.57711 2.79441 9.54095 2.78428 9.49756 2.77271C9.44983 2.76114 9.3992 2.74957 9.34568 2.73655C9.27481 2.72064 9.19671 2.72354 9.11426 2.74668C9.07087 2.75825 9.0376 2.79441 9.03037 2.8378C9.01446 2.92748 9.02314 3.00847 9.05785 3.0779C9.08533 3.13286 9.12005 3.18493 9.1591 3.23122C9.17935 3.25725 9.1996 3.28474 9.2184 3.31366C9.22708 3.32668 9.23142 3.34259 9.23142 3.36718C9.23431 3.4207 9.21262 3.51905 9.09546 3.68394C8.98698 3.83581 8.87561 3.979 8.76568 4.11352C8.71217 4.18005 8.66299 4.2408 8.62104 4.29866C8.5762 4.35941 8.54294 4.41003 8.5169 4.45487C8.50678 4.47222 8.50099 4.49247 8.50099 4.51272V4.55611C8.50099 4.55611 8.50099 4.56769 8.50099 4.57202C8.50099 4.57492 8.50099 4.57781 8.50099 4.5807C8.43446 4.65736 8.3578 4.73257 8.26957 4.80345C8.15964 4.89312 8.05984 4.98714 7.97017 5.08983C7.93979 5.12889 7.91376 5.17372 7.89495 5.22146C7.88917 5.23737 7.88194 5.25183 7.87326 5.26629C7.81829 5.26774 7.77346 5.2851 7.74019 5.31836C7.68667 5.37188 7.64762 5.43407 7.62448 5.50495C7.62014 5.51941 7.60857 5.54111 7.56807 5.56136C7.52612 5.58305 7.50153 5.62645 7.50443 5.67273C7.44802 5.71034 7.39739 5.75083 7.354 5.79423C7.28168 5.86655 7.21226 5.94321 7.14572 6.02131C7.08787 6.08929 7.01121 6.15583 6.9143 6.21947C6.87814 6.24406 6.85934 6.28745 6.86368 6.33084C6.72482 6.42485 6.5932 6.52755 6.4746 6.63313C6.33863 6.75463 6.19689 6.87468 6.05225 6.99039C5.9134 7.10177 5.75285 7.20012 5.57494 7.28401C5.51853 7.31149 5.49249 7.37803 5.51708 7.43588C5.57205 7.56027 5.67185 7.6485 5.80925 7.69045C5.92063 7.72372 6.02477 7.7483 6.11878 7.75987C6.14192 7.76277 6.16507 7.75987 6.18532 7.74975C6.62647 7.53568 7.02712 7.27389 7.3757 6.97304C7.68089 6.70979 7.97161 6.4263 8.24353 6.1269C8.29994 6.23827 8.33755 6.35398 8.35346 6.47403C8.37805 6.64904 8.3766 6.82984 8.34912 7.01498C8.31007 7.31873 8.22328 7.62391 8.09456 7.92042C7.95859 8.22995 7.83854 8.49898 7.7344 8.72317C7.73006 8.73185 7.72717 8.74198 7.72573 8.75065C7.67655 8.7738 7.64039 8.80706 7.61435 8.83599C7.56228 8.89819 7.51021 8.96617 7.46104 9.03993C7.45525 9.04861 7.45091 9.05729 7.44802 9.06741C7.44513 9.07465 7.44079 9.08332 7.435 9.092L7.39884 9.14552C7.3757 9.18023 7.37281 9.22362 7.39016 9.25978L7.27879 9.38996C7.15874 9.53026 7.02856 9.67345 6.8926 9.8152C6.87235 9.8369 6.86078 9.86438 6.86078 9.8933C6.80727 9.8933 6.75953 9.93236 6.74941 9.98732C6.74941 9.99311 6.74652 9.99744 6.74652 10.0018C6.72482 10.0076 6.70313 10.0148 6.67998 10.0235C6.59031 10.0553 6.54691 10.1537 6.51654 10.2347C6.50208 10.2766 6.5122 10.3243 6.54402 10.3562C6.66263 10.4748 6.7928 10.5297 6.92732 10.5167C7.04592 10.5066 7.16308 10.4632 7.2759 10.388C7.37425 10.3229 7.46682 10.2563 7.5536 10.1869C7.6939 10.0712 7.82842 9.92946 7.95426 9.76891C8.07575 9.6127 8.19291 9.44926 8.30573 9.28437C8.35057 9.21929 8.39396 9.15854 8.4359 9.10068C8.44169 9.14552 8.44748 9.19036 8.45471 9.22941L8.48942 9.63006C8.50099 9.7559 8.50388 9.87305 8.4981 9.97864C8.4981 10.0061 8.50533 10.0322 8.52124 10.0539C8.60513 10.1681 8.69336 10.278 8.78159 10.3822C8.87561 10.4921 8.98409 10.589 9.10269 10.67C9.12294 10.683 9.14464 10.6903 9.16778 10.6903C9.18514 10.6903 9.20249 10.6859 9.2184 10.6787C9.40788 10.5861 9.63207 10.5341 9.88519 10.5225C10.1513 10.5109 10.4218 10.5051 10.685 10.5051C10.8687 10.5109 11.0481 10.5124 11.2188 10.5095C11.3952 10.5066 11.5572 10.4892 11.699 10.4588C11.7337 10.4516 11.7626 10.4285 11.7785 10.3966C11.7944 10.3648 11.7944 10.3287 11.78 10.2968C11.7597 10.2535 11.7554 10.1884 11.7669 10.1059C11.7814 10.0061 11.7988 9.91355 11.8205 9.83111C11.8508 9.72263 11.8769 9.60837 11.8971 9.49121C11.9159 9.38273 11.9376 9.29161 11.9579 9.22652C11.9926 9.1354 12.0374 9.07754 12.0909 9.05584C12.1748 9.02113 12.2616 8.98642 12.3484 8.95026C12.4684 8.90253 12.5552 8.80562 12.6073 8.66242C12.6276 8.60601 12.603 8.54382 12.5494 8.51779C12.4945 8.4903 12.4395 8.45848 12.3846 8.42377C12.3281 8.38761 12.2746 8.35 12.2182 8.30516C12.0562 8.19813 11.8827 8.09833 11.7033 8.01155C11.5051 7.91609 11.2622 7.89294 10.9816 7.94501C10.9309 7.95369 10.8919 8.00142 10.8861 8.05205C10.8846 8.05205 10.8832 8.05494 10.8818 8.05639C10.863 8.06796 10.8456 8.07953 10.8311 8.09255C10.7443 8.09255 10.6489 8.09833 10.5505 8.10556C10.4305 8.11424 10.3104 8.12147 10.1831 8.12726C9.93871 8.1504 9.69282 8.16487 9.45272 8.17065C9.27915 8.17499 9.12149 8.16197 8.98264 8.13304C8.99277 8.09833 9 8.06217 9.00434 8.02312C9.00723 7.99998 9.01012 7.97828 9.01591 7.95948C9.16055 7.99564 9.33845 8.00432 9.55686 7.98551C9.80564 7.96526 10.0703 7.93634 10.3394 7.90162C10.5317 7.87848 10.7169 7.85823 10.8948 7.84087C11.0654 7.82352 11.213 7.82062 11.3345 7.83219C11.3865 7.83653 11.4328 7.80905 11.4516 7.76277C11.4574 7.74975 11.4647 7.74107 11.4791 7.73529C11.5109 7.72082 11.5355 7.69334 11.5456 7.66007C11.6006 7.46626 11.6368 7.27244 11.6556 7.08586C11.6729 6.91084 11.7019 6.74595 11.7438 6.59553C11.7698 6.50007 11.8118 6.41762 11.8711 6.34675C11.9304 6.42196 11.9969 6.49862 12.0692 6.57817C12.1604 6.67653 12.2168 6.76765 12.2356 6.8472C12.2428 6.88047 12.266 6.9094 12.2963 6.92386C12.412 6.98172 12.5451 7.05259 12.6926 7.13359C12.846 7.21748 13.008 7.29269 13.1728 7.35633C13.4433 7.45903 13.7167 7.48651 13.9496 7.42142C14.0349 7.39828 14.1188 7.35922 14.2027 7.30281C14.2866 7.24207 14.3459 7.16396 14.3762 7.06995C14.4023 6.99039 14.4196 6.90072 14.4254 6.80381C14.4269 6.78211 14.4225 6.76042 14.411 6.74017L14.4167 6.73149ZM10.7863 6.02854C10.7805 6.08929 10.7762 6.15438 10.7733 6.22381C10.7733 6.24695 10.7733 6.27009 10.7733 6.29179C10.7675 6.286 10.7603 6.28166 10.753 6.27877C10.7313 6.2672 10.7082 6.25563 10.6822 6.24116C10.646 6.22091 10.6069 6.20645 10.5621 6.19777C10.4449 6.17752 10.3177 6.17752 10.1831 6.19777C10.0602 6.21513 9.93437 6.23682 9.80853 6.25997C9.68703 6.28311 9.56843 6.30336 9.45272 6.32071C9.39197 6.32939 9.33267 6.33228 9.27626 6.32939C9.27626 6.30625 9.27192 6.28166 9.26613 6.25852C9.25312 6.20645 9.23721 6.15582 9.21696 6.09942C9.20539 6.07483 9.19671 6.04879 9.18803 6.02276C9.27626 6.02276 9.36883 6.01986 9.46863 6.00974C9.61905 5.99528 9.77816 5.97937 9.95028 5.96056C10.0993 5.94321 10.2569 5.92874 10.4204 5.91717C10.5476 5.90849 10.6735 5.90271 10.7964 5.90126C10.7964 5.93742 10.7935 5.97937 10.7877 6.0271L10.7863 6.02854ZM9.63786 5.16649C9.6393 5.20554 9.64075 5.24604 9.6422 5.2851C9.4802 5.29233 9.3211 5.30245 9.16778 5.31692L8.88863 5.34295C8.93202 5.29522 8.97686 5.24894 9.02314 5.2041C9.11716 5.11153 9.20539 5.01173 9.28638 4.90614C9.33556 4.93652 9.38618 4.964 9.43826 4.98859C9.50334 5.01896 9.56698 5.05223 9.62773 5.08839C9.63352 5.11008 9.63641 5.13612 9.63786 5.16505V5.16649ZM9.19526 7.17119C9.20539 7.12057 9.21696 7.07573 9.22853 7.03813C9.43536 6.99618 9.68125 6.95568 9.95896 6.91518C10.2193 6.87757 10.4826 6.85443 10.74 6.84575C10.7328 6.90506 10.7241 6.96291 10.7125 7.01932C10.701 7.07428 10.6836 7.12202 10.6619 7.16251C10.5447 7.14805 10.4218 7.14516 10.2945 7.15528C10.147 7.16685 9.99078 7.18566 9.83601 7.20735C9.70584 7.21892 9.57566 7.23194 9.44259 7.24785C9.35726 7.25798 9.26903 7.26232 9.1808 7.26232C9.18514 7.23339 9.18948 7.20301 9.19671 7.17119H9.19526ZM10.983 5.1014C10.8803 5.11008 10.7689 5.13178 10.6561 5.16071C10.5809 5.17806 10.4999 5.19542 10.4131 5.21278C10.3885 5.21712 10.3625 5.22146 10.3365 5.2229C10.3625 5.15492 10.377 5.08694 10.377 5.01896C10.377 4.89168 10.348 4.78031 10.2887 4.68484C10.2179 4.57058 10.1152 4.48524 9.98499 4.42883C9.90833 4.39557 9.82589 4.37821 9.74055 4.37676C9.78973 4.31457 9.84758 4.25093 9.90544 4.19307C9.95462 4.14968 10.0009 4.10484 10.0414 4.06145C10.0515 4.05132 10.0602 4.03975 10.0703 4.02963C10.2106 4.15257 10.3451 4.28998 10.4695 4.43896C10.6257 4.62699 10.7747 4.81647 10.915 5.0016L10.9888 5.1014C10.9888 5.1014 10.9859 5.1014 10.9844 5.1014H10.983ZM9.29362 8.91988C9.4209 8.89385 9.57855 8.87215 9.76225 8.8519C9.99656 8.82587 10.2338 8.8114 10.4681 8.80851C10.6503 8.80562 10.8036 8.81574 10.928 8.83599C10.928 8.98352 10.9194 9.14986 10.9006 9.33066C10.8818 9.50856 10.8456 9.65899 10.7935 9.77904C10.7848 9.77904 10.7762 9.77904 10.7675 9.78193C10.7429 9.78483 10.7169 9.78627 10.6822 9.78627C10.4623 9.80363 10.2453 9.81665 10.04 9.82532C9.85482 9.83256 9.64075 9.83545 9.4021 9.83111C9.3587 9.6966 9.33267 9.55919 9.32544 9.42178C9.3182 9.2728 9.30663 9.10502 9.29362 8.92133V8.91988Z" fill="#0A0A0A"/>
</svg>
